<svg viewBox="0 0 258 40" width="258" height="40" xmlns="http://www.w3.org/2000/svg">
<g transform="translate(0 8)">
<path d="M4.757 0.000C4.757 0.000 18.075 0.000 18.075 0.000C18.075 0.000 18.075 1.412 18.075 1.412C18.075 1.412 4.757 1.412 4.757 1.412ZM4.757 1.412C4.757 1.412 10.940 1.412 10.940 1.412C10.940 1.412 10.940 1.882 10.940 1.882C10.940 1.882 4.757 1.882 4.757 1.882ZM12.843 1.412C12.843 1.412 18.075 1.412 18.075 1.412C18.075 1.412 18.075 1.882 18.075 1.882C18.075 1.882 12.843 1.882 12.843 1.882ZM5.232 1.882C5.232 1.882 9.037 1.882 9.037 1.882C9.037 1.882 9.037 2.353 9.037 2.353C9.037 2.353 5.232 2.353 5.232 2.353ZM14.270 1.882C14.270 1.882 17.599 1.882 17.599 1.882C17.599 1.882 17.599 2.353 17.599 2.353C17.599 2.353 14.270 2.353 14.270 2.353ZM5.708 2.353C5.708 2.353 9.037 2.353 9.037 2.353C9.037 2.353 9.037 2.824 9.037 2.824C9.037 2.824 5.708 2.824 5.708 2.824ZM14.745 2.353C14.745 2.353 17.599 2.353 17.599 2.353C17.599 2.353 17.599 2.824 17.599 2.824C17.599 2.824 14.745 2.824 14.745 2.824ZM5.708 2.824C5.708 2.824 8.562 2.824 8.562 2.824C8.562 2.824 8.562 3.765 8.562 3.765C8.562 3.765 5.708 3.765 5.708 3.765ZM15.221 2.824C15.221 2.824 17.599 2.824 17.599 2.824C17.599 2.824 17.599 3.294 17.599 3.294C17.599 3.294 15.221 3.294 15.221 3.294ZM15.697 3.294C15.697 3.294 17.124 3.294 17.124 3.294C17.124 3.294 17.124 3.765 17.124 3.765C17.124 3.765 15.697 3.765 15.697 3.765ZM5.708 3.765C5.708 3.765 8.086 3.765 8.086 3.765C8.086 3.765 8.086 6.118 8.086 6.118C8.086 6.118 5.708 6.118 5.708 6.118ZM16.172 3.765C16.172 3.765 17.124 3.765 17.124 3.765C17.124 3.765 17.124 4.235 17.124 4.235C17.124 4.235 16.172 4.235 16.172 4.235ZM5.232 4.235C5.232 4.235 5.708 4.235 5.708 4.235C5.708 4.235 5.708 18.353 5.708 18.353C5.708 18.353 5.232 18.353 5.232 18.353ZM21.404 4.235C21.404 4.235 21.880 4.235 21.880 4.235C21.880 4.235 21.880 11.294 21.880 11.294C21.880 11.294 21.404 11.294 21.404 11.294ZM27.588 4.235C27.588 4.235 29.491 4.235 29.491 4.235C29.491 4.235 29.491 7.059 29.491 7.059C29.491 7.059 27.588 7.059 27.588 7.059ZM35.674 4.235C35.674 4.235 38.528 4.235 38.528 4.235C38.528 4.235 38.528 6.118 38.528 6.118C38.528 6.118 35.674 6.118 35.674 6.118ZM40.906 4.235C40.906 4.235 41.858 4.235 41.858 4.235C41.858 4.235 41.858 7.059 41.858 7.059C41.858 7.059 40.906 7.059 40.906 7.059ZM47.090 4.235C47.090 4.235 48.041 4.235 48.041 4.235C48.041 4.235 48.041 9.412 48.041 9.412C48.041 9.412 47.090 9.412 47.090 9.412ZM51.846 4.235C51.846 4.235 53.749 4.235 53.749 4.235C53.749 4.235 53.749 10.824 53.749 10.824C53.749 10.824 51.846 10.824 51.846 10.824ZM58.506 4.235C58.506 4.235 60.408 4.235 60.408 4.235C60.408 4.235 60.408 10.824 60.408 10.824C60.408 10.824 58.506 10.824 58.506 10.824ZM68.970 4.235C68.970 4.235 72.300 4.235 72.300 4.235C72.300 4.235 72.300 5.647 72.300 5.647C72.300 5.647 68.970 5.647 68.970 5.647ZM78.483 4.235C78.483 4.235 79.434 4.235 79.434 4.235C79.434 4.235 79.434 8.941 79.434 8.941C79.434 8.941 78.483 8.941 78.483 8.941ZM82.288 4.235C82.288 4.235 85.142 4.235 85.142 4.235C85.142 4.235 85.142 6.118 85.142 6.118C85.142 6.118 82.288 6.118 82.288 6.118ZM92.277 4.235C92.277 4.235 93.228 4.235 93.228 4.235C93.228 4.235 93.228 8.000 93.228 8.000C93.228 8.000 92.277 8.000 92.277 8.000ZM98.461 4.235C98.461 4.235 99.888 4.235 99.888 4.235C99.888 4.235 99.888 8.471 99.888 8.471C99.888 8.471 98.461 8.471 98.461 8.471ZM105.596 4.235C105.596 4.235 106.071 4.235 106.071 4.235C106.071 4.235 106.071 11.294 106.071 11.294C106.071 11.294 105.596 11.294 105.596 11.294ZM111.779 4.235C111.779 4.235 113.206 4.235 113.206 4.235C113.206 4.235 113.206 8.941 113.206 8.941C113.206 8.941 111.779 8.941 111.779 8.941ZM121.292 4.235C121.292 4.235 123.670 4.235 123.670 4.235C123.670 4.235 123.670 6.118 123.670 6.118C123.670 6.118 121.292 6.118 121.292 6.118ZM126.524 4.235C126.524 4.235 127.000 4.235 127.000 4.235C127.000 4.235 127.000 7.059 127.000 7.059C127.000 7.059 126.524 7.059 126.524 7.059ZM20.929 4.706C20.929 4.706 21.404 4.706 21.404 4.706C21.404 4.706 21.404 11.765 21.404 11.765C21.404 11.765 20.929 11.765 20.929 11.765ZM21.880 4.706C21.880 4.706 22.356 4.706 22.356 4.706C22.356 4.706 22.356 7.059 22.356 7.059C22.356 7.059 21.880 7.059 21.880 7.059ZM27.112 4.706C27.112 4.706 27.588 4.706 27.588 4.706C27.588 4.706 27.588 7.059 27.588 7.059C27.588 7.059 27.112 7.059 27.112 7.059ZM29.491 4.706C29.491 4.706 29.966 4.706 29.966 4.706C29.966 4.706 29.966 7.059 29.966 7.059C29.966 7.059 29.491 7.059 29.491 7.059ZM35.199 4.706C35.199 4.706 35.674 4.706 35.674 4.706C35.674 4.706 35.674 6.588 35.674 6.588C35.674 6.588 35.199 6.588 35.199 6.588ZM38.528 4.706C38.528 4.706 39.004 4.706 39.004 4.706C39.004 4.706 39.004 18.824 39.004 18.824C39.004 18.824 38.528 18.824 38.528 18.824ZM40.431 4.706C40.431 4.706 40.906 4.706 40.906 4.706C40.906 4.706 40.906 10.824 40.906 10.824C40.906 10.824 40.431 10.824 40.431 10.824ZM46.139 4.706C46.139 4.706 47.090 4.706 47.090 4.706C47.090 4.706 47.090 11.294 47.090 11.294C47.090 11.294 46.139 11.294 46.139 11.294ZM51.371 4.706C51.371 4.706 51.846 4.706 51.846 4.706C51.846 4.706 51.846 17.882 51.846 17.882C51.846 17.882 51.371 17.882 51.371 17.882ZM53.749 4.706C53.749 4.706 54.225 4.706 54.225 4.706C54.225 4.706 54.225 10.353 54.225 10.353C54.225 10.353 53.749 10.353 53.749 10.353ZM57.554 4.706C57.554 4.706 58.506 4.706 58.506 4.706C58.506 4.706 58.506 6.588 58.506 6.588C58.506 6.588 57.554 6.588 57.554 6.588ZM60.408 4.706C60.408 4.706 60.884 4.706 60.884 4.706C60.884 4.706 60.884 9.412 60.884 9.412C60.884 9.412 60.408 9.412 60.408 9.412ZM68.494 4.706C68.494 4.706 68.970 4.706 68.970 4.706C68.970 4.706 68.970 6.118 68.970 6.118C68.970 6.118 68.494 6.118 68.494 6.118ZM72.300 4.706C72.300 4.706 72.775 4.706 72.775 4.706C72.775 4.706 72.775 10.353 72.775 10.353C72.775 10.353 72.300 10.353 72.300 10.353ZM78.007 4.706C78.007 4.706 78.483 4.706 78.483 4.706C78.483 4.706 78.483 11.294 78.483 11.294C78.483 11.294 78.007 11.294 78.007 11.294ZM79.434 4.706C79.434 4.706 79.910 4.706 79.910 4.706C79.910 4.706 79.910 8.000 79.910 8.000C79.910 8.000 79.434 8.000 79.434 8.000ZM81.813 4.706C81.813 4.706 82.288 4.706 82.288 4.706C82.288 4.706 82.288 6.118 82.288 6.118C82.288 6.118 81.813 6.118 81.813 6.118ZM85.142 4.706C85.142 4.706 85.618 4.706 85.618 4.706C85.618 4.706 85.618 14.118 85.618 14.118C85.618 14.118 85.142 14.118 85.142 14.118ZM91.326 4.706C91.326 4.706 92.277 4.706 92.277 4.706C92.277 4.706 92.277 11.294 92.277 11.294C92.277 11.294 91.326 11.294 91.326 11.294ZM99.888 4.706C99.888 4.706 100.363 4.706 100.363 4.706C100.363 4.706 100.363 7.059 100.363 7.059C100.363 7.059 99.888 7.059 99.888 7.059ZM104.644 4.706C104.644 4.706 105.596 4.706 105.596 4.706C105.596 4.706 105.596 12.235 105.596 12.235C105.596 12.235 104.644 12.235 104.644 12.235ZM106.071 4.706C106.071 4.706 106.547 4.706 106.547 4.706C106.547 4.706 106.547 6.588 106.547 6.588C106.547 6.588 106.071 6.588 106.071 6.588ZM111.303 4.706C111.303 4.706 111.779 4.706 111.779 4.706C111.779 4.706 111.779 13.647 111.779 13.647C111.779 13.647 111.303 13.647 111.303 13.647ZM120.341 4.706C120.341 4.706 121.292 4.706 121.292 4.706C121.292 4.706 121.292 6.588 121.292 6.588C121.292 6.588 120.341 6.588 120.341 6.588ZM123.670 4.706C123.670 4.706 124.146 4.706 124.146 4.706C124.146 4.706 124.146 18.824 124.146 18.824C124.146 18.824 123.670 18.824 123.670 18.824ZM125.573 4.706C125.573 4.706 126.524 4.706 126.524 4.706C126.524 4.706 126.524 8.941 126.524 8.941C126.524 8.941 125.573 8.941 125.573 8.941ZM19.502 5.176C19.502 5.176 20.929 5.176 20.929 5.176C20.929 5.176 20.929 13.647 20.929 13.647C20.929 13.647 19.502 13.647 19.502 13.647ZM22.356 5.176C22.356 5.176 22.831 5.176 22.831 5.176C22.831 5.176 22.831 5.647 22.831 5.647C22.831 5.647 22.356 5.647 22.356 5.647ZM26.161 5.176C26.161 5.176 27.112 5.176 27.112 5.176C27.112 5.176 27.112 7.059 27.112 7.059C27.112 7.059 26.161 7.059 26.161 7.059ZM34.247 5.176C34.247 5.176 35.199 5.176 35.199 5.176C35.199 5.176 35.199 7.059 35.199 7.059C35.199 7.059 34.247 7.059 34.247 7.059ZM39.004 5.176C39.004 5.176 40.431 5.176 40.431 5.176C40.431 5.176 40.431 12.235 40.431 12.235C40.431 12.235 39.004 12.235 39.004 12.235ZM45.663 5.176C45.663 5.176 46.139 5.176 46.139 5.176C46.139 5.176 46.139 15.059 46.139 15.059C46.139 15.059 45.663 15.059 45.663 15.059ZM50.419 5.176C50.419 5.176 51.371 5.176 51.371 5.176C51.371 5.176 51.371 6.588 51.371 6.588C51.371 6.588 50.419 6.588 50.419 6.588ZM57.079 5.176C57.079 5.176 57.554 5.176 57.554 5.176C57.554 5.176 57.554 6.588 57.554 6.588C57.554 6.588 57.079 6.588 57.079 6.588ZM60.884 5.176C60.884 5.176 61.360 5.176 61.360 5.176C61.360 5.176 61.360 7.529 61.360 7.529C61.360 7.529 60.884 7.529 60.884 7.529ZM67.543 5.176C67.543 5.176 68.494 5.176 68.494 5.176C68.494 5.176 68.494 6.588 68.494 6.588C68.494 6.588 67.543 6.588 67.543 6.588ZM72.775 5.176C72.775 5.176 73.251 5.176 73.251 5.176C73.251 5.176 73.251 9.882 73.251 9.882C73.251 9.882 72.775 9.882 72.775 9.882ZM77.056 5.176C77.056 5.176 78.007 5.176 78.007 5.176C78.007 5.176 78.007 17.882 78.007 17.882C78.007 17.882 77.056 17.882 77.056 17.882ZM79.910 5.176C79.910 5.176 81.813 5.176 81.813 5.176C81.813 5.176 81.813 6.118 81.813 6.118C81.813 6.118 79.910 6.118 79.910 6.118ZM85.618 5.176C85.618 5.176 86.094 5.176 86.094 5.176C86.094 5.176 86.094 13.647 86.094 13.647C86.094 13.647 85.618 13.647 85.618 13.647ZM90.375 5.176C90.375 5.176 91.326 5.176 91.326 5.176C91.326 5.176 91.326 18.353 91.326 18.353C91.326 18.353 90.375 18.353 90.375 18.353ZM93.228 5.176C93.228 5.176 93.704 5.176 93.704 5.176C93.704 5.176 93.704 5.647 93.704 5.647C93.704 5.647 93.228 5.647 93.228 5.647ZM97.985 5.176C97.985 5.176 98.461 5.176 98.461 5.176C98.461 5.176 98.461 15.059 98.461 15.059C98.461 15.059 97.985 15.059 97.985 15.059ZM103.693 5.176C103.693 5.176 104.644 5.176 104.644 5.176C104.644 5.176 104.644 14.588 104.644 14.588C104.644 14.588 103.693 14.588 103.693 14.588ZM113.206 5.176C113.206 5.176 113.682 5.176 113.682 5.176C113.682 5.176 113.682 6.118 113.682 6.118C113.682 6.118 113.206 6.118 113.206 6.118ZM119.390 5.176C119.390 5.176 120.341 5.176 120.341 5.176C120.341 5.176 120.341 7.059 120.341 7.059C120.341 7.059 119.390 7.059 119.390 7.059ZM124.146 5.176C124.146 5.176 125.573 5.176 125.573 5.176C125.573 5.176 125.573 12.706 125.573 12.706C125.573 12.706 124.146 12.706 124.146 12.706ZM19.026 5.647C19.026 5.647 19.502 5.647 19.502 5.647C19.502 5.647 19.502 17.882 19.502 17.882C19.502 17.882 19.026 17.882 19.026 17.882ZM33.772 5.647C33.772 5.647 34.247 5.647 34.247 5.647C34.247 5.647 34.247 8.471 34.247 8.471C34.247 8.471 33.772 8.471 33.772 8.471ZM44.712 5.647C44.712 5.647 45.663 5.647 45.663 5.647C45.663 5.647 45.663 16.471 45.663 16.471C45.663 16.471 44.712 16.471 44.712 16.471ZM49.944 5.647C49.944 5.647 50.419 5.647 50.419 5.647C50.419 5.647 50.419 7.059 50.419 7.059C50.419 7.059 49.944 7.059 49.944 7.059ZM56.603 5.647C56.603 5.647 57.079 5.647 57.079 5.647C57.079 5.647 57.079 7.059 57.079 7.059C57.079 7.059 56.603 7.059 56.603 7.059ZM67.067 5.647C67.067 5.647 67.543 5.647 67.543 5.647C67.543 5.647 67.543 7.529 67.543 7.529C67.543 7.529 67.067 7.529 67.067 7.529ZM68.970 5.647C68.970 5.647 69.446 5.647 69.446 5.647C69.446 5.647 69.446 6.118 69.446 6.118C69.446 6.118 68.970 6.118 68.970 6.118ZM70.873 5.647C70.873 5.647 72.300 5.647 72.300 5.647C72.300 5.647 72.300 6.118 72.300 6.118C72.300 6.118 70.873 6.118 70.873 6.118ZM73.251 5.647C73.251 5.647 73.727 5.647 73.727 5.647C73.727 5.647 73.727 9.412 73.727 9.412C73.727 9.412 73.251 9.412 73.251 9.412ZM76.581 5.647C76.581 5.647 77.056 5.647 77.056 5.647C77.056 5.647 77.056 18.353 77.056 18.353C77.056 18.353 76.581 18.353 76.581 18.353ZM86.094 5.647C86.094 5.647 86.569 5.647 86.569 5.647C86.569 5.647 86.569 11.765 86.569 11.765C86.569 11.765 86.094 11.765 86.094 11.765ZM89.899 5.647C89.899 5.647 90.375 5.647 90.375 5.647C90.375 5.647 90.375 18.824 90.375 18.824C90.375 18.824 89.899 18.824 89.899 18.824ZM103.217 5.647C103.217 5.647 103.693 5.647 103.693 5.647C103.693 5.647 103.693 17.882 103.693 17.882C103.693 17.882 103.217 17.882 103.217 17.882ZM118.914 5.647C118.914 5.647 119.390 5.647 119.390 5.647C119.390 5.647 119.390 8.471 119.390 8.471C119.390 8.471 118.914 8.471 118.914 8.471ZM5.708 6.118C5.708 6.118 7.610 6.118 7.610 6.118C7.610 6.118 7.610 9.412 7.610 9.412C7.610 9.412 5.708 9.412 5.708 9.412ZM18.551 6.118C18.551 6.118 19.026 6.118 19.026 6.118C19.026 6.118 19.026 7.059 19.026 7.059C19.026 7.059 18.551 7.059 18.551 7.059ZM25.685 6.118C25.685 6.118 26.161 6.118 26.161 6.118C26.161 6.118 26.161 8.000 26.161 8.000C26.161 8.000 25.685 8.000 25.685 8.000ZM33.296 6.118C33.296 6.118 33.772 6.118 33.772 6.118C33.772 6.118 33.772 8.941 33.772 8.941C33.772 8.941 33.296 8.941 33.296 8.941ZM38.052 6.118C38.052 6.118 38.528 6.118 38.528 6.118C38.528 6.118 38.528 6.588 38.528 6.588C38.528 6.588 38.052 6.588 38.052 6.588ZM44.236 6.118C44.236 6.118 44.712 6.118 44.712 6.118C44.712 6.118 44.712 7.059 44.712 7.059C44.712 7.059 44.236 7.059 44.236 7.059ZM49.468 6.118C49.468 6.118 49.944 6.118 49.944 6.118C49.944 6.118 49.944 7.059 49.944 7.059C49.944 7.059 49.468 7.059 49.468 7.059ZM56.127 6.118C56.127 6.118 56.603 6.118 56.603 6.118C56.603 6.118 56.603 7.059 56.603 7.059C56.603 7.059 56.127 7.059 56.127 7.059ZM66.116 6.118C66.116 6.118 67.067 6.118 67.067 6.118C67.067 6.118 67.067 8.941 67.067 8.941C67.067 8.941 66.116 8.941 66.116 8.941ZM71.348 6.118C71.348 6.118 72.300 6.118 72.300 6.118C72.300 6.118 72.300 10.824 72.300 10.824C72.300 10.824 71.348 10.824 71.348 10.824ZM73.727 6.118C73.727 6.118 74.202 6.118 74.202 6.118C74.202 6.118 74.202 8.471 74.202 8.471C74.202 8.471 73.727 8.471 73.727 8.471ZM75.629 6.118C75.629 6.118 76.581 6.118 76.581 6.118C76.581 6.118 76.581 6.588 76.581 6.588C76.581 6.588 75.629 6.588 75.629 6.588ZM79.910 6.118C79.910 6.118 81.337 6.118 81.337 6.118C81.337 6.118 81.337 6.588 81.337 6.588C81.337 6.588 79.910 6.588 79.910 6.588ZM83.240 6.118C83.240 6.118 85.142 6.118 85.142 6.118C85.142 6.118 85.142 6.588 85.142 6.588C85.142 6.588 83.240 6.588 83.240 6.588ZM89.423 6.118C89.423 6.118 89.899 6.118 89.899 6.118C89.899 6.118 89.899 8.000 89.899 8.000C89.899 8.000 89.423 8.000 89.423 8.000ZM97.509 6.118C97.509 6.118 97.985 6.118 97.985 6.118C97.985 6.118 97.985 18.824 97.985 18.824C97.985 18.824 97.509 18.824 97.509 18.824ZM102.266 6.118C102.266 6.118 103.217 6.118 103.217 6.118C103.217 6.118 103.217 6.588 103.217 6.588C103.217 6.588 102.266 6.588 102.266 6.588ZM110.828 6.118C110.828 6.118 111.303 6.118 111.303 6.118C111.303 6.118 111.303 18.824 111.303 18.824C111.303 18.824 110.828 18.824 110.828 18.824ZM118.438 6.118C118.438 6.118 118.914 6.118 118.914 6.118C118.914 6.118 118.914 9.412 118.914 9.412C118.914 9.412 118.438 9.412 118.438 9.412ZM123.195 6.118C123.195 6.118 123.670 6.118 123.670 6.118C123.670 6.118 123.670 6.588 123.670 6.588C123.670 6.588 123.195 6.588 123.195 6.588ZM4.757 6.588C4.757 6.588 5.232 6.588 5.232 6.588C5.232 6.588 5.232 18.353 5.232 18.353C5.232 18.353 4.757 18.353 4.757 18.353ZM12.843 6.588C12.843 6.588 13.794 6.588 13.794 6.588C13.794 6.588 13.794 9.412 13.794 9.412C13.794 9.412 12.843 9.412 12.843 9.412ZM25.210 6.588C25.210 6.588 25.685 6.588 25.685 6.588C25.685 6.588 25.685 8.471 25.685 8.471C25.685 8.471 25.210 8.471 25.210 8.471ZM32.820 6.588C32.820 6.588 33.296 6.588 33.296 6.588C33.296 6.588 33.296 10.353 33.296 10.353C33.296 10.353 32.820 10.353 32.820 10.353ZM48.041 6.588C48.041 6.588 48.517 6.588 48.517 6.588C48.517 6.588 48.517 8.471 48.517 8.471C48.517 8.471 48.041 8.471 48.041 8.471ZM48.993 6.588C48.993 6.588 49.468 6.588 49.468 6.588C49.468 6.588 49.468 7.529 49.468 7.529C49.468 7.529 48.993 7.529 48.993 7.529ZM50.895 6.588C50.895 6.588 51.371 6.588 51.371 6.588C51.371 6.588 51.371 7.059 51.371 7.059C51.371 7.059 50.895 7.059 50.895 7.059ZM54.225 6.588C54.225 6.588 56.127 6.588 56.127 6.588C56.127 6.588 56.127 7.529 56.127 7.529C56.127 7.529 54.225 7.529 54.225 7.529ZM58.030 6.588C58.030 6.588 58.506 6.588 58.506 6.588C58.506 6.588 58.506 7.059 58.506 7.059C58.506 7.059 58.030 7.059 58.030 7.059ZM65.640 6.588C65.640 6.588 66.116 6.588 66.116 6.588C66.116 6.588 66.116 12.235 66.116 12.235C66.116 12.235 65.640 12.235 65.640 12.235ZM67.543 6.588C67.543 6.588 68.019 6.588 68.019 6.588C68.019 6.588 68.019 7.059 68.019 7.059C68.019 7.059 67.543 7.059 67.543 7.059ZM76.105 6.588C76.105 6.588 76.581 6.588 76.581 6.588C76.581 6.588 76.581 7.529 76.581 7.529C76.581 7.529 76.105 7.529 76.105 7.529ZM79.910 6.588C79.910 6.588 80.861 6.588 80.861 6.588C80.861 6.588 80.861 7.059 80.861 7.059C80.861 7.059 79.910 7.059 79.910 7.059ZM83.715 6.588C83.715 6.588 85.142 6.588 85.142 6.588C85.142 6.588 85.142 7.529 85.142 7.529C85.142 7.529 83.715 7.529 83.715 7.529ZM86.569 6.588C86.569 6.588 87.045 6.588 87.045 6.588C87.045 6.588 87.045 10.353 87.045 10.353C87.045 10.353 86.569 10.353 86.569 10.353ZM102.742 6.588C102.742 6.588 103.217 6.588 103.217 6.588C103.217 6.588 103.217 7.529 103.217 7.529C103.217 7.529 102.742 7.529 102.742 7.529ZM117.963 6.588C117.963 6.588 118.438 6.588 118.438 6.588C118.438 6.588 118.438 10.353 118.438 10.353C118.438 10.353 117.963 10.353 117.963 10.353ZM12.367 7.059C12.367 7.059 12.843 7.059 12.843 7.059C12.843 7.059 12.843 10.824 12.843 10.824C12.843 10.824 12.367 10.824 12.367 10.824ZM26.161 7.059C26.161 7.059 26.637 7.059 26.637 7.059C26.637 7.059 26.637 7.529 26.637 7.529C26.637 7.529 26.161 7.529 26.161 7.529ZM28.539 7.059C28.539 7.059 29.015 7.059 29.015 7.059C29.015 7.059 29.015 7.529 29.015 7.529C29.015 7.529 28.539 7.529 28.539 7.529ZM32.345 7.059C32.345 7.059 32.820 7.059 32.820 7.059C32.820 7.059 32.820 12.235 32.820 12.235C32.820 12.235 32.345 12.235 32.345 12.235ZM34.247 7.059C34.247 7.059 34.723 7.059 34.723 7.059C34.723 7.059 34.723 7.529 34.723 7.529C34.723 7.529 34.247 7.529 34.247 7.529ZM40.906 7.059C40.906 7.059 41.382 7.059 41.382 7.059C41.382 7.059 41.382 8.471 41.382 8.471C41.382 8.471 40.906 8.471 40.906 8.471ZM48.517 7.059C48.517 7.059 48.993 7.059 48.993 7.059C48.993 7.059 48.993 8.000 48.993 8.000C48.993 8.000 48.517 8.000 48.517 8.000ZM65.165 7.059C65.165 7.059 65.640 7.059 65.640 7.059C65.640 7.059 65.640 13.176 65.640 13.176C65.640 13.176 65.165 13.176 65.165 13.176ZM79.910 7.059C79.910 7.059 80.386 7.059 80.386 7.059C80.386 7.059 80.386 7.529 80.386 7.529C80.386 7.529 79.910 7.529 79.910 7.529ZM117.487 7.059C117.487 7.059 117.963 7.059 117.963 7.059C117.963 7.059 117.963 12.235 117.963 12.235C117.963 12.235 117.487 12.235 117.487 12.235ZM119.390 7.059C119.390 7.059 119.865 7.059 119.865 7.059C119.865 7.059 119.865 7.529 119.865 7.529C119.865 7.529 119.390 7.529 119.390 7.529ZM7.610 7.529C7.610 7.529 8.086 7.529 8.086 7.529C8.086 7.529 8.086 9.412 8.086 9.412C8.086 9.412 7.610 9.412 7.610 9.412ZM11.891 7.529C11.891 7.529 12.367 7.529 12.367 7.529C12.367 7.529 12.367 10.824 12.367 10.824C12.367 10.824 11.891 10.824 11.891 10.824ZM24.734 7.529C24.734 7.529 25.210 7.529 25.210 7.529C25.210 7.529 25.210 8.941 25.210 8.941C25.210 8.941 24.734 8.941 24.734 8.941ZM31.869 7.529C31.869 7.529 32.345 7.529 32.345 7.529C32.345 7.529 32.345 18.824 32.345 18.824C32.345 18.824 31.869 18.824 31.869 18.824ZM54.225 7.529C54.225 7.529 55.652 7.529 55.652 7.529C55.652 7.529 55.652 8.000 55.652 8.000C55.652 8.000 54.225 8.000 54.225 8.000ZM84.191 7.529C84.191 7.529 85.142 7.529 85.142 7.529C85.142 7.529 85.142 15.059 85.142 15.059C85.142 15.059 84.191 15.059 84.191 15.059ZM110.352 7.529C110.352 7.529 110.828 7.529 110.828 7.529C110.828 7.529 110.828 18.824 110.828 18.824C110.828 18.824 110.352 18.824 110.352 18.824ZM4.281 8.000C4.281 8.000 4.757 8.000 4.757 8.000C4.757 8.000 4.757 18.353 4.757 18.353C4.757 18.353 4.281 18.353 4.281 18.353ZM8.086 8.000C8.086 8.000 11.891 8.000 11.891 8.000C11.891 8.000 11.891 8.941 11.891 8.941C11.891 8.941 8.086 8.941 8.086 8.941ZM24.258 8.000C24.258 8.000 24.734 8.000 24.734 8.000C24.734 8.000 24.734 17.882 24.734 17.882C24.734 17.882 24.258 17.882 24.258 17.882ZM31.393 8.000C31.393 8.000 31.869 8.000 31.869 8.000C31.869 8.000 31.869 18.824 31.869 18.824C31.869 18.824 31.393 18.824 31.393 18.824ZM54.225 8.000C54.225 8.000 55.176 8.000 55.176 8.000C55.176 8.000 55.176 8.941 55.176 8.941C55.176 8.941 54.225 8.941 54.225 8.941ZM64.689 8.000C64.689 8.000 65.165 8.000 65.165 8.000C65.165 8.000 65.165 18.353 65.165 18.353C65.165 18.353 64.689 18.353 64.689 18.353ZM92.277 8.000C92.277 8.000 92.753 8.000 92.753 8.000C92.753 8.000 92.753 8.941 92.753 8.941C92.753 8.941 92.277 8.941 92.277 8.941ZM116.536 8.000C116.536 8.000 117.487 8.000 117.487 8.000C117.487 8.000 117.487 18.824 117.487 18.824C117.487 18.824 116.536 18.824 116.536 18.824ZM58.030 8.471C58.030 8.471 58.506 8.471 58.506 8.471C58.506 8.471 58.506 18.824 58.506 18.824C58.506 18.824 58.030 18.824 58.030 18.824ZM64.213 8.471C64.213 8.471 64.689 8.471 64.689 8.471C64.689 8.471 64.689 17.882 64.689 17.882C64.689 17.882 64.213 17.882 64.213 17.882ZM97.034 8.471C97.034 8.471 97.509 8.471 97.509 8.471C97.509 8.471 97.509 18.824 97.509 18.824C97.509 18.824 97.034 18.824 97.034 18.824ZM98.461 8.471C98.461 8.471 99.412 8.471 99.412 8.471C99.412 8.471 99.412 10.824 99.412 10.824C99.412 10.824 98.461 10.824 98.461 10.824ZM10.464 8.941C10.464 8.941 11.891 8.941 11.891 8.941C11.891 8.941 11.891 9.412 11.891 9.412C11.891 9.412 10.464 9.412 10.464 9.412ZM21.880 8.941C21.880 8.941 22.356 8.941 22.356 8.941C22.356 8.941 22.356 11.294 22.356 11.294C22.356 11.294 21.880 11.294 21.880 11.294ZM23.307 8.941C23.307 8.941 24.258 8.941 24.258 8.941C24.258 8.941 24.258 15.059 24.258 15.059C24.258 15.059 23.307 15.059 23.307 15.059ZM30.918 8.941C30.918 8.941 31.393 8.941 31.393 8.941C31.393 8.941 31.393 18.353 31.393 18.353C31.393 18.353 30.918 18.353 30.918 18.353ZM54.225 8.941C54.225 8.941 54.700 8.941 54.700 8.941C54.700 8.941 54.700 9.412 54.700 9.412C54.700 9.412 54.225 9.412 54.225 9.412ZM66.116 8.941C66.116 8.941 66.592 8.941 66.592 8.941C66.592 8.941 66.592 12.235 66.592 12.235C66.592 12.235 66.116 12.235 66.116 12.235ZM78.483 8.941C78.483 8.941 78.959 8.941 78.959 8.941C78.959 8.941 78.959 9.882 78.959 9.882C78.959 9.882 78.483 9.882 78.483 9.882ZM89.423 8.941C89.423 8.941 89.899 8.941 89.899 8.941C89.899 8.941 89.899 18.824 89.899 18.824C89.899 18.824 89.423 18.824 89.423 18.824ZM106.071 8.941C106.071 8.941 106.547 8.941 106.547 8.941C106.547 8.941 106.547 11.765 106.547 11.765C106.547 11.765 106.071 11.765 106.071 11.765ZM111.779 8.941C111.779 8.941 112.730 8.941 112.730 8.941C112.730 8.941 112.730 9.882 112.730 9.882C112.730 9.882 111.779 9.882 111.779 9.882ZM125.573 8.941C125.573 8.941 126.049 8.941 126.049 8.941C126.049 8.941 126.049 10.824 126.049 10.824C126.049 10.824 125.573 10.824 125.573 10.824ZM5.708 9.412C5.708 9.412 7.135 9.412 7.135 9.412C7.135 9.412 7.135 10.353 7.135 10.353C7.135 10.353 5.708 10.353 5.708 10.353ZM10.940 9.412C10.940 9.412 11.891 9.412 11.891 9.412C11.891 9.412 11.891 9.882 11.891 9.882C11.891 9.882 10.940 9.882 10.940 9.882ZM12.843 9.412C12.843 9.412 13.318 9.412 13.318 9.412C13.318 9.412 13.318 10.353 13.318 10.353C13.318 10.353 12.843 10.353 12.843 10.353ZM22.356 9.412C22.356 9.412 23.307 9.412 23.307 9.412C23.307 9.412 23.307 11.294 23.307 11.294C23.307 11.294 22.356 11.294 22.356 11.294ZM47.090 9.412C47.090 9.412 47.566 9.412 47.566 9.412C47.566 9.412 47.566 9.882 47.566 9.882C47.566 9.882 47.090 9.882 47.090 9.882ZM63.738 9.412C63.738 9.412 64.213 9.412 64.213 9.412C64.213 9.412 64.213 17.882 64.213 17.882C64.213 17.882 63.738 17.882 63.738 17.882ZM70.873 9.412C70.873 9.412 71.348 9.412 71.348 9.412C71.348 9.412 71.348 11.294 71.348 11.294C71.348 11.294 70.873 11.294 70.873 11.294ZM109.876 9.412C109.876 9.412 110.352 9.412 110.352 9.412C110.352 9.412 110.352 18.824 110.352 18.824C110.352 18.824 109.876 18.824 109.876 18.824ZM116.060 9.412C116.060 9.412 116.536 9.412 116.536 9.412C116.536 9.412 116.536 18.353 116.536 18.353C116.536 18.353 116.060 18.353 116.060 18.353ZM30.442 9.882C30.442 9.882 30.918 9.882 30.918 9.882C30.918 9.882 30.918 17.882 30.918 17.882C30.918 17.882 30.442 17.882 30.442 17.882ZM44.236 9.882C44.236 9.882 44.712 9.882 44.712 9.882C44.712 9.882 44.712 18.353 44.712 18.353C44.712 18.353 44.236 18.353 44.236 18.353ZM66.592 9.882C66.592 9.882 67.067 9.882 67.067 9.882C67.067 9.882 67.067 11.765 67.067 11.765C67.067 11.765 66.592 11.765 66.592 11.765ZM69.921 9.882C69.921 9.882 70.873 9.882 70.873 9.882C70.873 9.882 70.873 11.294 70.873 11.294C70.873 11.294 69.921 11.294 69.921 11.294ZM76.105 9.882C76.105 9.882 76.581 9.882 76.581 9.882C76.581 9.882 76.581 19.765 76.581 19.765C76.581 19.765 76.105 19.765 76.105 19.765ZM96.558 9.882C96.558 9.882 97.034 9.882 97.034 9.882C97.034 9.882 97.034 18.824 97.034 18.824C97.034 18.824 96.558 18.824 96.558 18.824ZM102.742 9.882C102.742 9.882 103.217 9.882 103.217 9.882C103.217 9.882 103.217 18.353 103.217 18.353C103.217 18.353 102.742 18.353 102.742 18.353ZM106.547 9.882C106.547 9.882 107.974 9.882 107.974 9.882C107.974 9.882 107.974 11.765 107.974 11.765C107.974 11.765 106.547 11.765 106.547 11.765ZM109.401 9.882C109.401 9.882 109.876 9.882 109.876 9.882C109.876 9.882 109.876 18.353 109.876 18.353C109.876 18.353 109.401 18.353 109.401 18.353ZM111.779 9.882C111.779 9.882 112.255 9.882 112.255 9.882C112.255 9.882 112.255 12.706 112.255 12.706C112.255 12.706 111.779 12.706 111.779 12.706ZM115.584 9.882C115.584 9.882 116.060 9.882 116.060 9.882C116.060 9.882 116.060 17.882 116.060 17.882C116.060 17.882 115.584 17.882 115.584 17.882ZM3.805 10.353C3.805 10.353 4.281 10.353 4.281 10.353C4.281 10.353 4.281 18.353 4.281 18.353C4.281 18.353 3.805 18.353 3.805 18.353ZM5.708 10.353C5.708 10.353 6.659 10.353 6.659 10.353C6.659 10.353 6.659 11.765 6.659 11.765C6.659 11.765 5.708 11.765 5.708 11.765ZM38.052 10.353C38.052 10.353 38.528 10.353 38.528 10.353C38.528 10.353 38.528 18.824 38.528 18.824C38.528 18.824 38.052 18.824 38.052 18.824ZM50.895 10.353C50.895 10.353 51.371 10.353 51.371 10.353C51.371 10.353 51.371 18.353 51.371 18.353C51.371 18.353 50.895 18.353 50.895 18.353ZM57.554 10.353C57.554 10.353 58.030 10.353 58.030 10.353C58.030 10.353 58.030 18.824 58.030 18.824C58.030 18.824 57.554 18.824 57.554 18.824ZM63.262 10.353C63.262 10.353 63.738 10.353 63.738 10.353C63.738 10.353 63.738 17.412 63.738 17.412C63.738 17.412 63.262 17.412 63.262 17.412ZM67.067 10.353C67.067 10.353 67.543 10.353 67.543 10.353C67.543 10.353 67.543 11.765 67.543 11.765C67.543 11.765 67.067 11.765 67.067 11.765ZM68.970 10.353C68.970 10.353 69.921 10.353 69.921 10.353C69.921 10.353 69.921 11.765 69.921 11.765C69.921 11.765 68.970 11.765 68.970 11.765ZM83.715 10.353C83.715 10.353 84.191 10.353 84.191 10.353C84.191 10.353 84.191 16.471 84.191 16.471C84.191 16.471 83.715 16.471 83.715 16.471ZM107.974 10.353C107.974 10.353 109.401 10.353 109.401 10.353C109.401 10.353 109.401 12.235 109.401 12.235C109.401 12.235 107.974 12.235 107.974 12.235ZM18.551 10.824C18.551 10.824 19.026 10.824 19.026 10.824C19.026 10.824 19.026 18.353 19.026 18.353C19.026 18.353 18.551 18.353 18.551 18.353ZM51.846 10.824C51.846 10.824 53.273 10.824 53.273 10.824C53.273 10.824 53.273 13.176 53.273 13.176C53.273 13.176 51.846 13.176 51.846 13.176ZM58.506 10.824C58.506 10.824 59.933 10.824 59.933 10.824C59.933 10.824 59.933 12.706 59.933 12.706C59.933 12.706 58.506 12.706 58.506 12.706ZM67.543 10.824C67.543 10.824 68.970 10.824 68.970 10.824C68.970 10.824 68.970 11.765 68.970 11.765C68.970 11.765 67.543 11.765 67.543 11.765ZM98.461 10.824C98.461 10.824 98.936 10.824 98.936 10.824C98.936 10.824 98.936 12.706 98.936 12.706C98.936 12.706 98.461 12.706 98.461 12.706ZM123.195 10.824C123.195 10.824 123.670 10.824 123.670 10.824C123.670 10.824 123.670 18.824 123.670 18.824C123.670 18.824 123.195 18.824 123.195 18.824ZM22.831 11.294C22.831 11.294 23.307 11.294 23.307 11.294C23.307 11.294 23.307 12.235 23.307 12.235C23.307 12.235 22.831 12.235 22.831 12.235ZM24.734 11.294C24.734 11.294 25.210 11.294 25.210 11.294C25.210 11.294 25.210 18.353 25.210 18.353C25.210 18.353 24.734 18.353 24.734 18.353ZM29.966 11.294C29.966 11.294 30.442 11.294 30.442 11.294C30.442 11.294 30.442 17.412 30.442 17.412C30.442 17.412 29.966 17.412 29.966 17.412ZM46.139 11.294C46.139 11.294 46.614 11.294 46.614 11.294C46.614 11.294 46.614 12.706 46.614 12.706C46.614 12.706 46.139 12.706 46.139 12.706ZM69.921 11.294C69.921 11.294 70.397 11.294 70.397 11.294C70.397 11.294 70.397 11.765 70.397 11.765C70.397 11.765 69.921 11.765 69.921 11.765ZM91.326 11.294C91.326 11.294 91.802 11.294 91.802 11.294C91.802 11.294 91.802 12.235 91.802 12.235C91.802 12.235 91.326 12.235 91.326 12.235ZM5.708 11.765C5.708 11.765 6.184 11.765 6.184 11.765C6.184 11.765 6.184 13.647 6.184 13.647C6.184 13.647 5.708 13.647 5.708 13.647ZM50.419 11.765C50.419 11.765 50.895 11.765 50.895 11.765C50.895 11.765 50.895 18.824 50.895 18.824C50.895 18.824 50.419 18.824 50.419 18.824ZM57.079 11.765C57.079 11.765 57.554 11.765 57.554 11.765C57.554 11.765 57.554 18.824 57.554 18.824C57.554 18.824 57.079 18.824 57.079 18.824ZM75.629 11.765C75.629 11.765 76.105 11.765 76.105 11.765C76.105 11.765 76.105 22.118 76.105 22.118C76.105 22.118 75.629 22.118 75.629 22.118ZM88.948 11.765C88.948 11.765 89.423 11.765 89.423 11.765C89.423 11.765 89.423 18.824 89.423 18.824C89.423 18.824 88.948 18.824 88.948 18.824ZM96.082 11.765C96.082 11.765 96.558 11.765 96.558 11.765C96.558 11.765 96.558 18.353 96.558 18.353C96.558 18.353 96.082 18.353 96.082 18.353ZM102.266 11.765C102.266 11.765 102.742 11.765 102.742 11.765C102.742 11.765 102.742 18.824 102.742 18.824C102.742 18.824 102.266 18.824 102.266 18.824ZM115.109 11.765C115.109 11.765 115.584 11.765 115.584 11.765C115.584 11.765 115.584 17.412 115.584 17.412C115.584 17.412 115.109 17.412 115.109 17.412ZM3.330 12.235C3.330 12.235 3.805 12.235 3.805 12.235C3.805 12.235 3.805 18.353 3.805 18.353C3.805 18.353 3.330 18.353 3.330 18.353ZM18.075 12.235C18.075 12.235 18.551 12.235 18.551 12.235C18.551 12.235 18.551 18.824 18.551 18.824C18.551 18.824 18.075 18.824 18.075 18.824ZM25.210 12.235C25.210 12.235 25.685 12.235 25.685 12.235C25.685 12.235 25.685 18.824 25.685 18.824C25.685 18.824 25.210 18.824 25.210 18.824ZM37.577 12.235C37.577 12.235 38.052 12.235 38.052 12.235C38.052 12.235 38.052 18.353 38.052 18.353C38.052 18.353 37.577 18.353 37.577 18.353ZM39.004 12.235C39.004 12.235 39.955 12.235 39.955 12.235C39.955 12.235 39.955 14.588 39.955 14.588C39.955 14.588 39.004 14.588 39.004 14.588ZM62.787 12.235C62.787 12.235 63.262 12.235 63.262 12.235C63.262 12.235 63.262 16.471 63.262 16.471C63.262 16.471 62.787 16.471 62.787 16.471ZM83.240 12.235C83.240 12.235 83.715 12.235 83.715 12.235C83.715 12.235 83.715 16.941 83.715 16.941C83.715 16.941 83.240 16.941 83.240 16.941ZM104.644 12.235C104.644 12.235 105.120 12.235 105.120 12.235C105.120 12.235 105.120 13.176 105.120 13.176C105.120 13.176 104.644 13.176 104.644 13.176ZM108.925 12.235C108.925 12.235 109.401 12.235 109.401 12.235C109.401 12.235 109.401 13.176 109.401 13.176C109.401 13.176 108.925 13.176 108.925 13.176ZM122.719 12.235C122.719 12.235 123.195 12.235 123.195 12.235C123.195 12.235 123.195 18.353 123.195 18.353C123.195 18.353 122.719 18.353 122.719 18.353ZM43.760 12.706C43.760 12.706 44.236 12.706 44.236 12.706C44.236 12.706 44.236 18.353 44.236 18.353C44.236 18.353 43.760 18.353 43.760 18.353ZM58.506 12.706C58.506 12.706 59.457 12.706 59.457 12.706C59.457 12.706 59.457 13.647 59.457 13.647C59.457 13.647 58.506 13.647 58.506 13.647ZM88.472 12.706C88.472 12.706 88.948 12.706 88.948 12.706C88.948 12.706 88.948 18.353 88.948 18.353C88.948 18.353 88.472 18.353 88.472 18.353ZM95.607 12.706C95.607 12.706 96.082 12.706 96.082 12.706C96.082 12.706 96.082 18.353 96.082 18.353C96.082 18.353 95.607 18.353 95.607 18.353ZM124.146 12.706C124.146 12.706 125.097 12.706 125.097 12.706C125.097 12.706 125.097 14.588 125.097 14.588C125.097 14.588 124.146 14.588 124.146 14.588ZM25.685 13.176C25.685 13.176 26.161 13.176 26.161 13.176C26.161 13.176 26.161 18.824 26.161 18.824C26.161 18.824 25.685 18.824 25.685 18.824ZM29.491 13.176C29.491 13.176 29.966 13.176 29.966 13.176C29.966 13.176 29.966 16.471 29.966 16.471C29.966 16.471 29.491 16.471 29.491 16.471ZM37.101 13.176C37.101 13.176 37.577 13.176 37.577 13.176C37.577 13.176 37.577 17.882 37.577 17.882C37.577 17.882 37.101 17.882 37.101 17.882ZM51.846 13.176C51.846 13.176 52.798 13.176 52.798 13.176C52.798 13.176 52.798 14.588 52.798 14.588C52.798 14.588 51.846 14.588 51.846 14.588ZM75.154 13.176C75.154 13.176 75.629 13.176 75.629 13.176C75.629 13.176 75.629 23.059 75.629 23.059C75.629 23.059 75.154 23.059 75.154 23.059ZM95.131 13.176C95.131 13.176 95.607 13.176 95.607 13.176C95.607 13.176 95.607 16.941 95.607 16.941C95.607 16.941 95.131 16.941 95.131 16.941ZM114.633 13.176C114.633 13.176 115.109 13.176 115.109 13.176C115.109 13.176 115.109 16.471 115.109 16.471C115.109 16.471 114.633 16.471 114.633 16.471ZM122.243 13.176C122.243 13.176 122.719 13.176 122.719 13.176C122.719 13.176 122.719 17.882 122.719 17.882C122.719 17.882 122.243 17.882 122.243 17.882ZM14.745 13.647C14.745 13.647 15.697 13.647 15.697 13.647C15.697 13.647 15.697 15.059 15.697 15.059C15.697 15.059 14.745 15.059 14.745 15.059ZM19.502 13.647C19.502 13.647 20.453 13.647 20.453 13.647C20.453 13.647 20.453 14.588 20.453 14.588C20.453 14.588 19.502 14.588 19.502 14.588ZM43.285 13.647C43.285 13.647 43.760 13.647 43.760 13.647C43.760 13.647 43.760 18.824 43.760 18.824C43.760 18.824 43.285 18.824 43.285 18.824ZM56.603 13.647C56.603 13.647 57.079 13.647 57.079 13.647C57.079 13.647 57.079 18.353 57.079 18.353C57.079 18.353 56.603 18.353 56.603 18.353ZM58.506 13.647C58.506 13.647 58.981 13.647 58.981 13.647C58.981 13.647 58.981 18.824 58.981 18.824C58.981 18.824 58.506 18.824 58.506 18.824ZM62.311 13.647C62.311 13.647 62.787 13.647 62.787 13.647C62.787 13.647 62.787 15.529 62.787 15.529C62.787 15.529 62.311 15.529 62.311 15.529ZM82.764 13.647C82.764 13.647 83.240 13.647 83.240 13.647C83.240 13.647 83.240 17.412 83.240 17.412C83.240 17.412 82.764 17.412 82.764 17.412ZM101.790 13.647C101.790 13.647 102.266 13.647 102.266 13.647C102.266 13.647 102.266 18.824 102.266 18.824C102.266 18.824 101.790 18.824 101.790 18.824ZM108.925 13.647C108.925 13.647 109.401 13.647 109.401 13.647C109.401 13.647 109.401 17.882 109.401 17.882C109.401 17.882 108.925 17.882 108.925 17.882ZM2.854 14.118C2.854 14.118 3.330 14.118 3.330 14.118C3.330 14.118 3.330 18.353 3.330 18.353C3.330 18.353 2.854 18.353 2.854 18.353ZM14.270 14.118C14.270 14.118 14.745 14.118 14.745 14.118C14.745 14.118 14.745 17.882 14.745 17.882C14.745 17.882 14.270 17.882 14.270 17.882ZM49.944 14.118C49.944 14.118 50.419 14.118 50.419 14.118C50.419 14.118 50.419 18.353 50.419 18.353C50.419 18.353 49.944 18.353 49.944 18.353ZM71.348 14.118C71.348 14.118 72.300 14.118 72.300 14.118C72.300 14.118 72.300 15.529 72.300 15.529C72.300 15.529 71.348 15.529 71.348 15.529ZM82.288 14.118C82.288 14.118 82.764 14.118 82.764 14.118C82.764 14.118 82.764 17.882 82.764 17.882C82.764 17.882 82.288 17.882 82.288 17.882ZM94.655 14.118C94.655 14.118 95.131 14.118 95.131 14.118C95.131 14.118 95.131 15.529 95.131 15.529C95.131 15.529 94.655 15.529 94.655 15.529ZM121.768 14.118C121.768 14.118 122.243 14.118 122.243 14.118C122.243 14.118 122.243 16.941 122.243 16.941C122.243 16.941 121.768 16.941 121.768 16.941ZM13.794 14.588C13.794 14.588 14.270 14.588 14.270 14.588C14.270 14.588 14.270 17.882 14.270 17.882C14.270 17.882 13.794 17.882 13.794 17.882ZM17.599 14.588C17.599 14.588 18.075 14.588 18.075 14.588C18.075 14.588 18.075 18.824 18.075 18.824C18.075 18.824 17.599 18.824 17.599 18.824ZM19.502 14.588C19.502 14.588 19.978 14.588 19.978 14.588C19.978 14.588 19.978 17.412 19.978 17.412C19.978 17.412 19.502 17.412 19.502 17.412ZM29.015 14.588C29.015 14.588 29.491 14.588 29.491 14.588C29.491 14.588 29.491 16.471 29.491 16.471C29.491 16.471 29.015 16.471 29.015 16.471ZM36.625 14.588C36.625 14.588 37.101 14.588 37.101 14.588C37.101 14.588 37.101 16.941 37.101 16.941C37.101 16.941 36.625 16.941 36.625 16.941ZM39.004 14.588C39.004 14.588 39.479 14.588 39.479 14.588C39.479 14.588 39.479 18.824 39.479 18.824C39.479 18.824 39.004 18.824 39.004 18.824ZM51.846 14.588C51.846 14.588 52.322 14.588 52.322 14.588C52.322 14.588 52.322 16.471 52.322 16.471C52.322 16.471 51.846 16.471 51.846 16.471ZM56.127 14.588C56.127 14.588 56.603 14.588 56.603 14.588C56.603 14.588 56.603 17.882 56.603 17.882C56.603 17.882 56.127 17.882 56.127 17.882ZM65.165 14.588C65.165 14.588 65.640 14.588 65.640 14.588C65.640 14.588 65.640 18.824 65.640 18.824C65.640 18.824 65.165 18.824 65.165 18.824ZM94.180 14.588C94.180 14.588 94.655 14.588 94.655 14.588C94.655 14.588 94.655 15.529 94.655 15.529C94.655 15.529 94.180 15.529 94.180 15.529ZM103.693 14.588C103.693 14.588 104.169 14.588 104.169 14.588C104.169 14.588 104.169 16.941 104.169 16.941C104.169 16.941 103.693 16.941 103.693 16.941ZM124.146 14.588C124.146 14.588 124.622 14.588 124.622 14.588C124.622 14.588 124.622 18.824 124.622 18.824C124.622 18.824 124.146 18.824 124.146 18.824ZM13.318 15.059C13.318 15.059 13.794 15.059 13.794 15.059C13.794 15.059 13.794 18.353 13.794 18.353C13.794 18.353 13.318 18.353 13.318 18.353ZM14.745 15.059C14.745 15.059 15.221 15.059 15.221 15.059C15.221 15.059 15.221 16.471 15.221 16.471C15.221 16.471 14.745 16.471 14.745 16.471ZM23.783 15.059C23.783 15.059 24.258 15.059 24.258 15.059C24.258 15.059 24.258 16.941 24.258 16.941C24.258 16.941 23.783 16.941 23.783 16.941ZM26.161 15.059C26.161 15.059 26.637 15.059 26.637 15.059C26.637 15.059 26.637 18.824 26.637 18.824C26.637 18.824 26.161 18.824 26.161 18.824ZM28.064 15.059C28.064 15.059 29.015 15.059 29.015 15.059C29.015 15.059 29.015 16.471 29.015 16.471C29.015 16.471 28.064 16.471 28.064 16.471ZM32.345 15.059C32.345 15.059 32.820 15.059 32.820 15.059C32.820 15.059 32.820 18.824 32.820 18.824C32.820 18.824 32.345 18.824 32.345 18.824ZM36.150 15.059C36.150 15.059 36.625 15.059 36.625 15.059C36.625 15.059 36.625 16.941 36.625 16.941C36.625 16.941 36.150 16.941 36.150 16.941ZM41.382 15.059C41.382 15.059 41.858 15.059 41.858 15.059C41.858 15.059 41.858 16.471 41.858 16.471C41.858 16.471 41.382 16.471 41.382 16.471ZM60.408 15.059C60.408 15.059 60.884 15.059 60.884 15.059C60.884 15.059 60.884 17.412 60.884 17.412C60.884 17.412 60.408 17.412 60.408 17.412ZM70.397 15.059C70.397 15.059 71.348 15.059 71.348 15.059C71.348 15.059 71.348 16.941 71.348 16.941C71.348 16.941 70.397 16.941 70.397 16.941ZM84.191 15.059C84.191 15.059 84.667 15.059 84.667 15.059C84.667 15.059 84.667 15.529 84.667 15.529C84.667 15.529 84.191 15.529 84.191 15.529ZM93.228 15.059C93.228 15.059 94.180 15.059 94.180 15.059C94.180 15.059 94.180 15.529 94.180 15.529C94.180 15.529 93.228 15.529 93.228 15.529ZM101.315 15.059C101.315 15.059 101.790 15.059 101.790 15.059C101.790 15.059 101.790 18.353 101.790 18.353C101.790 18.353 101.315 18.353 101.315 18.353ZM108.449 15.059C108.449 15.059 108.925 15.059 108.925 15.059C108.925 15.059 108.925 17.412 108.925 17.412C108.925 17.412 108.449 17.412 108.449 17.412ZM112.730 15.059C112.730 15.059 113.206 15.059 113.206 15.059C113.206 15.059 113.206 17.412 113.206 17.412C113.206 17.412 112.730 17.412 112.730 17.412ZM121.292 15.059C121.292 15.059 121.768 15.059 121.768 15.059C121.768 15.059 121.768 16.941 121.768 16.941C121.768 16.941 121.292 16.941 121.292 16.941ZM2.378 15.529C2.378 15.529 2.854 15.529 2.854 15.529C2.854 15.529 2.854 18.353 2.854 18.353C2.854 18.353 2.378 18.353 2.378 18.353ZM12.843 15.529C12.843 15.529 13.318 15.529 13.318 15.529C13.318 15.529 13.318 18.824 13.318 18.824C13.318 18.824 12.843 18.824 12.843 18.824ZM17.124 15.529C17.124 15.529 17.599 15.529 17.599 15.529C17.599 15.529 17.599 18.353 17.599 18.353C17.599 18.353 17.124 18.353 17.124 18.353ZM26.637 15.529C26.637 15.529 28.064 15.529 28.064 15.529C28.064 15.529 28.064 17.412 28.064 17.412C28.064 17.412 26.637 17.412 26.637 17.412ZM35.674 15.529C35.674 15.529 36.150 15.529 36.150 15.529C36.150 15.529 36.150 16.941 36.150 16.941C36.150 16.941 35.674 16.941 35.674 16.941ZM40.431 15.529C40.431 15.529 41.382 15.529 41.382 15.529C41.382 15.529 41.382 16.941 41.382 16.941C41.382 16.941 40.431 16.941 40.431 16.941ZM49.468 15.529C49.468 15.529 49.944 15.529 49.944 15.529C49.944 15.529 49.944 18.353 49.944 18.353C49.944 18.353 49.468 18.353 49.468 18.353ZM59.933 15.529C59.933 15.529 60.408 15.529 60.408 15.529C60.408 15.529 60.408 17.882 60.408 17.882C60.408 17.882 59.933 17.882 59.933 17.882ZM60.884 15.529C60.884 15.529 61.360 15.529 61.360 15.529C61.360 15.529 61.360 16.471 61.360 16.471C61.360 16.471 60.884 16.471 60.884 16.471ZM65.640 15.529C65.640 15.529 66.116 15.529 66.116 15.529C66.116 15.529 66.116 18.824 66.116 18.824C66.116 18.824 65.640 18.824 65.640 18.824ZM69.921 15.529C69.921 15.529 70.397 15.529 70.397 15.529C70.397 15.529 70.397 17.412 70.397 17.412C70.397 17.412 69.921 17.412 69.921 17.412ZM71.348 15.529C71.348 15.529 71.824 15.529 71.824 15.529C71.824 15.529 71.824 16.000 71.824 16.000C71.824 16.000 71.348 16.000 71.348 16.000ZM74.678 15.529C74.678 15.529 75.154 15.529 75.154 15.529C75.154 15.529 75.154 24.000 75.154 24.000C75.154 24.000 74.678 24.000 74.678 24.000ZM81.813 15.529C81.813 15.529 82.288 15.529 82.288 15.529C82.288 15.529 82.288 17.882 82.288 17.882C82.288 17.882 81.813 17.882 81.813 17.882ZM92.753 15.529C92.753 15.529 93.704 15.529 93.704 15.529C93.704 15.529 93.704 16.000 93.704 16.000C93.704 16.000 92.753 16.000 92.753 16.000ZM97.985 15.529C97.985 15.529 98.461 15.529 98.461 15.529C98.461 15.529 98.461 18.353 98.461 18.353C98.461 18.353 97.985 18.353 97.985 18.353ZM99.412 15.529C99.412 15.529 100.363 15.529 100.363 15.529C100.363 15.529 100.363 16.941 100.363 16.941C100.363 16.941 99.412 16.941 99.412 16.941ZM112.255 15.529C112.255 15.529 112.730 15.529 112.730 15.529C112.730 15.529 112.730 17.882 112.730 17.882C112.730 17.882 112.255 17.882 112.255 17.882ZM113.206 15.529C113.206 15.529 113.682 15.529 113.682 15.529C113.682 15.529 113.682 16.471 113.682 16.471C113.682 16.471 113.206 16.471 113.206 16.471ZM117.487 15.529C117.487 15.529 117.963 15.529 117.963 15.529C117.963 15.529 117.963 18.824 117.963 18.824C117.963 18.824 117.487 18.824 117.487 18.824ZM120.816 15.529C120.816 15.529 121.292 15.529 121.292 15.529C121.292 15.529 121.292 16.941 121.292 16.941C121.292 16.941 120.816 16.941 120.816 16.941ZM126.049 15.529C126.049 15.529 127.000 15.529 127.000 15.529C127.000 15.529 127.000 16.471 127.000 16.471C127.000 16.471 126.049 16.471 126.049 16.471ZM1.903 16.000C1.903 16.000 2.378 16.000 2.378 16.000C2.378 16.000 2.378 18.353 2.378 18.353C2.378 18.353 1.903 18.353 1.903 18.353ZM11.416 16.000C11.416 16.000 12.843 16.000 12.843 16.000C12.843 16.000 12.843 18.824 12.843 18.824C12.843 18.824 11.416 18.824 11.416 18.824ZM32.820 16.000C32.820 16.000 33.296 16.000 33.296 16.000C33.296 16.000 33.296 18.824 33.296 18.824C33.296 18.824 32.820 18.824 32.820 18.824ZM34.723 16.000C34.723 16.000 35.674 16.000 35.674 16.000C35.674 16.000 35.674 16.941 35.674 16.941C35.674 16.941 34.723 16.941 34.723 16.941ZM39.479 16.000C39.479 16.000 40.431 16.000 40.431 16.000C40.431 16.000 40.431 17.882 40.431 17.882C40.431 17.882 39.479 17.882 39.479 17.882ZM58.981 16.000C58.981 16.000 59.933 16.000 59.933 16.000C59.933 16.000 59.933 17.882 59.933 17.882C59.933 17.882 58.981 17.882 58.981 17.882ZM66.116 16.000C66.116 16.000 66.592 16.000 66.592 16.000C66.592 16.000 66.592 18.824 66.592 18.824C66.592 18.824 66.116 18.824 66.116 18.824ZM68.970 16.000C68.970 16.000 69.921 16.000 69.921 16.000C69.921 16.000 69.921 17.882 69.921 17.882C69.921 17.882 68.970 17.882 68.970 17.882ZM81.337 16.000C81.337 16.000 81.813 16.000 81.813 16.000C81.813 16.000 81.813 18.353 81.813 18.353C81.813 18.353 81.337 18.353 81.337 18.353ZM91.326 16.000C91.326 16.000 93.228 16.000 93.228 16.000C93.228 16.000 93.228 16.471 93.228 16.471C93.228 16.471 91.326 16.471 91.326 16.471ZM98.461 16.000C98.461 16.000 99.412 16.000 99.412 16.000C99.412 16.000 99.412 17.882 99.412 17.882C99.412 17.882 98.461 17.882 98.461 17.882ZM111.303 16.000C111.303 16.000 112.255 16.000 112.255 16.000C112.255 16.000 112.255 17.882 112.255 17.882C112.255 17.882 111.303 17.882 111.303 17.882ZM117.963 16.000C117.963 16.000 118.438 16.000 118.438 16.000C118.438 16.000 118.438 18.824 118.438 18.824C118.438 18.824 117.963 18.824 117.963 18.824ZM120.341 16.000C120.341 16.000 120.816 16.000 120.816 16.000C120.816 16.000 120.816 16.941 120.816 16.941C120.816 16.941 120.341 16.941 120.341 16.941ZM124.622 16.000C124.622 16.000 126.049 16.000 126.049 16.000C126.049 16.000 126.049 17.882 126.049 17.882C126.049 17.882 124.622 17.882 124.622 17.882ZM1.427 16.471C1.427 16.471 1.903 16.471 1.903 16.471C1.903 16.471 1.903 18.353 1.903 18.353C1.903 18.353 1.427 18.353 1.427 18.353ZM5.708 16.471C5.708 16.471 6.184 16.471 6.184 16.471C6.184 16.471 6.184 18.353 6.184 18.353C6.184 18.353 5.708 18.353 5.708 18.353ZM10.464 16.471C10.464 16.471 11.416 16.471 11.416 16.471C11.416 16.471 11.416 18.353 11.416 18.353C11.416 18.353 10.464 18.353 10.464 18.353ZM28.064 16.471C28.064 16.471 28.539 16.471 28.539 16.471C28.539 16.471 28.539 16.941 28.539 16.941C28.539 16.941 28.064 16.941 28.064 16.941ZM33.296 16.471C33.296 16.471 34.723 16.471 34.723 16.471C34.723 16.471 34.723 17.882 34.723 17.882C34.723 17.882 33.296 17.882 33.296 17.882ZM42.809 16.471C42.809 16.471 43.285 16.471 43.285 16.471C43.285 16.471 43.285 18.353 43.285 18.353C43.285 18.353 42.809 18.353 42.809 18.353ZM44.712 16.471C44.712 16.471 45.187 16.471 45.187 16.471C45.187 16.471 45.187 17.882 45.187 17.882C45.187 17.882 44.712 17.882 44.712 17.882ZM66.592 16.471C66.592 16.471 68.970 16.471 68.970 16.471C68.970 16.471 68.970 18.353 68.970 18.353C68.970 18.353 66.592 18.353 66.592 18.353ZM78.007 16.471C78.007 16.471 78.483 16.471 78.483 16.471C78.483 16.471 78.483 17.882 78.483 17.882C78.483 17.882 78.007 17.882 78.007 17.882ZM80.861 16.471C80.861 16.471 81.337 16.471 81.337 16.471C81.337 16.471 81.337 18.353 81.337 18.353C81.337 18.353 80.861 18.353 80.861 18.353ZM91.326 16.471C91.326 16.471 92.753 16.471 92.753 16.471C92.753 16.471 92.753 16.941 92.753 16.941C92.753 16.941 91.326 16.941 91.326 16.941ZM118.438 16.471C118.438 16.471 120.341 16.471 120.341 16.471C120.341 16.471 120.341 17.882 120.341 17.882C120.341 17.882 118.438 17.882 118.438 17.882ZM126.049 16.471C126.049 16.471 126.524 16.471 126.524 16.471C126.524 16.471 126.524 17.412 126.524 17.412C126.524 17.412 126.049 17.412 126.049 17.412ZM0.000 16.941C0.000 16.941 1.427 16.941 1.427 16.941C1.427 16.941 1.427 18.353 1.427 18.353C1.427 18.353 0.000 18.353 0.000 18.353ZM6.184 16.941C6.184 16.941 10.464 16.941 10.464 16.941C10.464 16.941 10.464 18.353 10.464 18.353C10.464 18.353 6.184 18.353 6.184 18.353ZM34.723 16.941C34.723 16.941 35.199 16.941 35.199 16.941C35.199 16.941 35.199 17.412 35.199 17.412C35.199 17.412 34.723 17.412 34.723 17.412ZM40.431 16.941C40.431 16.941 40.906 16.941 40.906 16.941C40.906 16.941 40.906 17.882 40.906 17.882C40.906 17.882 40.431 17.882 40.431 17.882ZM74.202 16.941C74.202 16.941 74.678 16.941 74.678 16.941C74.678 16.941 74.678 24.000 74.678 24.000C74.678 24.000 74.202 24.000 74.202 24.000ZM78.483 16.941C78.483 16.941 80.861 16.941 80.861 16.941C80.861 16.941 80.861 18.353 80.861 18.353C80.861 18.353 78.483 18.353 78.483 18.353ZM91.326 16.941C91.326 16.941 92.277 16.941 92.277 16.941C92.277 16.941 92.277 17.412 92.277 17.412C92.277 17.412 91.326 17.412 91.326 17.412ZM99.412 16.941C99.412 16.941 99.888 16.941 99.888 16.941C99.888 16.941 99.888 17.412 99.888 17.412C99.888 17.412 99.412 17.412 99.412 17.412ZM26.637 17.412C26.637 17.412 27.588 17.412 27.588 17.412C27.588 17.412 27.588 17.882 27.588 17.882C27.588 17.882 26.637 17.882 26.637 17.882ZM91.326 17.412C91.326 17.412 91.802 17.412 91.802 17.412C91.802 17.412 91.802 17.882 91.802 17.882C91.802 17.882 91.326 17.882 91.326 17.882ZM26.637 17.882C26.637 17.882 27.112 17.882 27.112 17.882C27.112 17.882 27.112 18.353 27.112 18.353C27.112 18.353 26.637 18.353 26.637 18.353ZM33.296 17.882C33.296 17.882 33.772 17.882 33.772 17.882C33.772 17.882 33.772 18.353 33.772 18.353C33.772 18.353 33.296 18.353 33.296 18.353ZM39.479 17.882C39.479 17.882 39.955 17.882 39.955 17.882C39.955 17.882 39.955 18.824 39.955 18.824C39.955 18.824 39.479 18.824 39.479 18.824ZM58.981 17.882C58.981 17.882 59.457 17.882 59.457 17.882C59.457 17.882 59.457 18.353 59.457 18.353C59.457 18.353 58.981 18.353 58.981 18.353ZM111.303 17.882C111.303 17.882 111.779 17.882 111.779 17.882C111.779 17.882 111.779 18.353 111.779 18.353C111.779 18.353 111.303 18.353 111.303 18.353ZM118.438 17.882C118.438 17.882 118.914 17.882 118.914 17.882C118.914 17.882 118.914 18.353 118.914 18.353C118.914 18.353 118.438 18.353 118.438 18.353ZM124.622 17.882C124.622 17.882 125.097 17.882 125.097 17.882C125.097 17.882 125.097 18.353 125.097 18.353C125.097 18.353 124.622 18.353 124.622 18.353ZM10.940 18.353C10.940 18.353 11.416 18.353 11.416 18.353C11.416 18.353 11.416 18.824 11.416 18.824C11.416 18.824 10.940 18.824 10.940 18.824ZM66.592 18.353C66.592 18.353 68.019 18.353 68.019 18.353C68.019 18.353 68.019 18.824 68.019 18.824C68.019 18.824 66.592 18.824 66.592 18.824ZM78.959 18.353C78.959 18.353 80.861 18.353 80.861 18.353C80.861 18.353 80.861 18.824 80.861 18.824C80.861 18.824 78.959 18.824 78.959 18.824ZM73.727 19.765C73.727 19.765 74.202 19.765 74.202 19.765C74.202 19.765 74.202 24.000 74.202 24.000C74.202 24.000 73.727 24.000 73.727 24.000ZM73.251 20.706C73.251 20.706 73.727 20.706 73.727 20.706C73.727 20.706 73.727 24.000 73.727 24.000C73.727 24.000 73.251 24.000 73.251 24.000Z" fill-rule="nonzero" fill="#232323" />
</g>
<g transform="translate(139 8)">
<path d="M4.848 0.000C4.848 0.000 18.070 0.000 18.070 0.000C18.070 0.000 18.070 1.714 18.070 1.714C18.070 1.714 4.848 1.714 4.848 1.714ZM5.289 1.714C5.289 1.714 9.696 1.714 9.696 1.714C9.696 1.714 9.696 2.143 9.696 2.143C9.696 2.143 5.289 2.143 5.289 2.143ZM14.104 1.714C14.104 1.714 18.070 1.714 18.070 1.714C18.070 1.714 18.070 2.143 18.070 2.143C18.070 2.143 14.104 2.143 14.104 2.143ZM5.730 2.143C5.730 2.143 9.256 2.143 9.256 2.143C9.256 2.143 9.256 2.571 9.256 2.571C9.256 2.571 5.730 2.571 5.730 2.571ZM14.985 2.143C14.985 2.143 18.070 2.143 18.070 2.143C18.070 2.143 18.070 2.571 18.070 2.571C18.070 2.571 14.985 2.571 14.985 2.571ZM5.730 2.571C5.730 2.571 8.815 2.571 8.815 2.571C8.815 2.571 8.815 3.429 8.815 3.429C8.815 3.429 5.730 3.429 5.730 3.429ZM15.426 2.571C15.426 2.571 17.630 2.571 17.630 2.571C17.630 2.571 17.630 3.000 17.630 3.000C17.630 3.000 15.426 3.000 15.426 3.000ZM15.867 3.000C15.867 3.000 17.630 3.000 17.630 3.000C17.630 3.000 17.630 3.429 17.630 3.429C17.630 3.429 15.867 3.429 15.867 3.429ZM5.730 3.429C5.730 3.429 8.374 3.429 8.374 3.429C8.374 3.429 8.374 4.714 8.374 4.714C8.374 4.714 5.730 4.714 5.730 4.714ZM16.307 3.429C16.307 3.429 17.189 3.429 17.189 3.429C17.189 3.429 17.189 4.286 17.189 4.286C17.189 4.286 16.307 4.286 16.307 4.286ZM5.289 4.286C5.289 4.286 5.730 4.286 5.730 4.286C5.730 4.286 5.730 18.000 5.730 18.000C5.730 18.000 5.289 18.000 5.289 18.000ZM22.037 4.286C22.037 4.286 22.919 4.286 22.919 4.286C22.919 4.286 22.919 8.571 22.919 8.571C22.919 8.571 22.037 8.571 22.037 8.571ZM26.004 4.286C26.004 4.286 29.089 4.286 29.089 4.286C29.089 4.286 29.089 6.000 29.089 6.000C29.089 6.000 26.004 6.000 26.004 6.000ZM37.904 4.286C37.904 4.286 41.870 4.286 41.870 4.286C41.870 4.286 41.870 5.571 41.870 5.571C41.870 5.571 37.904 5.571 37.904 5.571ZM50.244 4.286C50.244 4.286 51.126 4.286 51.126 4.286C51.126 4.286 51.126 7.286 51.126 7.286C51.126 7.286 50.244 7.286 50.244 7.286ZM56.415 4.286C56.415 4.286 57.737 4.286 57.737 4.286C57.737 4.286 57.737 7.286 57.737 7.286C57.737 7.286 56.415 7.286 56.415 7.286ZM63.026 4.286C63.026 4.286 63.907 4.286 63.907 4.286C63.907 4.286 63.907 9.429 63.907 9.429C63.907 9.429 63.026 9.429 63.026 9.429ZM70.078 4.286C70.078 4.286 70.959 4.286 70.959 4.286C70.959 4.286 70.959 6.857 70.959 6.857C70.959 6.857 70.078 6.857 70.078 6.857ZM75.807 4.286C75.807 4.286 78.011 4.286 78.011 4.286C78.011 4.286 78.011 6.857 78.011 6.857C78.011 6.857 75.807 6.857 75.807 6.857ZM83.300 4.286C83.300 4.286 84.181 4.286 84.181 4.286C84.181 4.286 84.181 7.714 84.181 7.714C84.181 7.714 83.300 7.714 83.300 7.714ZM89.911 4.286C89.911 4.286 91.233 4.286 91.233 4.286C91.233 4.286 91.233 7.714 91.233 7.714C91.233 7.714 89.911 7.714 89.911 7.714ZM96.522 4.286C96.522 4.286 97.404 4.286 97.404 4.286C97.404 4.286 97.404 8.143 97.404 8.143C97.404 8.143 96.522 8.143 96.522 8.143ZM103.133 4.286C103.133 4.286 104.456 4.286 104.456 4.286C104.456 4.286 104.456 8.143 104.456 8.143C104.456 8.143 103.133 8.143 103.133 8.143ZM112.389 4.286C112.389 4.286 115.033 4.286 115.033 4.286C115.033 4.286 115.033 6.000 115.033 6.000C115.033 6.000 112.389 6.000 112.389 6.000ZM117.237 4.286C117.237 4.286 118.119 4.286 118.119 4.286C118.119 4.286 118.119 7.714 118.119 7.714C118.119 7.714 117.237 7.714 117.237 7.714ZM5.730 4.714C5.730 4.714 7.933 4.714 7.933 4.714C7.933 4.714 7.933 9.429 7.933 9.429C7.933 9.429 5.730 9.429 5.730 9.429ZM21.596 4.714C21.596 4.714 22.037 4.714 22.037 4.714C22.037 4.714 22.037 11.143 22.037 11.143C22.037 11.143 21.596 11.143 21.596 11.143ZM22.919 4.714C22.919 4.714 23.359 4.714 23.359 4.714C23.359 4.714 23.359 8.143 23.359 8.143C23.359 8.143 22.919 8.143 22.919 8.143ZM25.563 4.714C25.563 4.714 26.004 4.714 26.004 4.714C26.004 4.714 26.004 6.000 26.004 6.000C26.004 6.000 25.563 6.000 25.563 6.000ZM29.089 4.714C29.089 4.714 29.530 4.714 29.530 4.714C29.530 4.714 29.530 13.714 29.530 13.714C29.530 13.714 29.089 13.714 29.089 13.714ZM37.022 4.714C37.022 4.714 37.904 4.714 37.904 4.714C37.904 4.714 37.904 6.000 37.904 6.000C37.904 6.000 37.022 6.000 37.022 6.000ZM41.870 4.714C41.870 4.714 42.311 4.714 42.311 4.714C42.311 4.714 42.311 15.429 42.311 15.429C42.311 15.429 41.870 15.429 41.870 15.429ZM49.363 4.714C49.363 4.714 50.244 4.714 50.244 4.714C50.244 4.714 50.244 9.857 50.244 9.857C50.244 9.857 49.363 9.857 49.363 9.857ZM51.126 4.714C51.126 4.714 51.567 4.714 51.567 4.714C51.567 4.714 51.567 6.000 51.567 6.000C51.567 6.000 51.126 6.000 51.126 6.000ZM55.974 4.714C55.974 4.714 56.415 4.714 56.415 4.714C56.415 4.714 56.415 12.000 56.415 12.000C56.415 12.000 55.974 12.000 55.974 12.000ZM62.585 4.714C62.585 4.714 63.026 4.714 63.026 4.714C63.026 4.714 63.026 12.857 63.026 12.857C63.026 12.857 62.585 12.857 62.585 12.857ZM63.907 4.714C63.907 4.714 64.348 4.714 64.348 4.714C64.348 4.714 64.348 7.286 64.348 7.286C64.348 7.286 63.907 7.286 63.907 7.286ZM69.196 4.714C69.196 4.714 70.078 4.714 70.078 4.714C70.078 4.714 70.078 12.000 70.078 12.000C70.078 12.000 69.196 12.000 69.196 12.000ZM75.367 4.714C75.367 4.714 75.807 4.714 75.807 4.714C75.807 4.714 75.807 6.857 75.807 6.857C75.807 6.857 75.367 6.857 75.367 6.857ZM78.011 4.714C78.011 4.714 78.452 4.714 78.452 4.714C78.452 4.714 78.452 6.857 78.452 6.857C78.452 6.857 78.011 6.857 78.011 6.857ZM82.419 4.714C82.419 4.714 83.300 4.714 83.300 4.714C83.300 4.714 83.300 10.714 83.300 10.714C83.300 10.714 82.419 10.714 82.419 10.714ZM89.470 4.714C89.470 4.714 89.911 4.714 89.911 4.714C89.911 4.714 89.911 12.000 89.911 12.000C89.911 12.000 89.470 12.000 89.470 12.000ZM95.641 4.714C95.641 4.714 96.522 4.714 96.522 4.714C96.522 4.714 96.522 12.429 96.522 12.429C96.522 12.429 95.641 12.429 95.641 12.429ZM102.693 4.714C102.693 4.714 103.133 4.714 103.133 4.714C103.133 4.714 103.133 12.857 103.133 12.857C103.133 12.857 102.693 12.857 102.693 12.857ZM104.456 4.714C104.456 4.714 104.896 4.714 104.896 4.714C104.896 4.714 104.896 6.429 104.896 6.429C104.896 6.429 104.456 6.429 104.456 6.429ZM111.507 4.714C111.507 4.714 112.389 4.714 112.389 4.714C112.389 4.714 112.389 6.429 112.389 6.429C112.389 6.429 111.507 6.429 111.507 6.429ZM115.033 4.714C115.033 4.714 115.474 4.714 115.474 4.714C115.474 4.714 115.474 18.857 115.474 18.857C115.474 18.857 115.033 18.857 115.033 18.857ZM116.796 4.714C116.796 4.714 117.237 4.714 117.237 4.714C117.237 4.714 117.237 10.714 117.237 10.714C117.237 10.714 116.796 10.714 116.796 10.714ZM118.119 4.714C118.119 4.714 118.559 4.714 118.559 4.714C118.559 4.714 118.559 6.000 118.559 6.000C118.559 6.000 118.119 6.000 118.119 6.000ZM20.715 5.143C20.715 5.143 21.596 5.143 21.596 5.143C21.596 5.143 21.596 12.857 21.596 12.857C21.596 12.857 20.715 12.857 20.715 12.857ZM23.359 5.143C23.359 5.143 25.563 5.143 25.563 5.143C25.563 5.143 25.563 6.000 25.563 6.000C25.563 6.000 23.359 6.000 23.359 6.000ZM36.141 5.143C36.141 5.143 37.022 5.143 37.022 5.143C37.022 5.143 37.022 7.286 37.022 7.286C37.022 7.286 36.141 7.286 36.141 7.286ZM42.311 5.143C42.311 5.143 42.752 5.143 42.752 5.143C42.752 5.143 42.752 14.571 42.752 14.571C42.752 14.571 42.311 14.571 42.311 14.571ZM48.481 5.143C48.481 5.143 49.363 5.143 49.363 5.143C49.363 5.143 49.363 12.857 49.363 12.857C49.363 12.857 48.481 12.857 48.481 12.857ZM55.093 5.143C55.093 5.143 55.974 5.143 55.974 5.143C55.974 5.143 55.974 14.143 55.974 14.143C55.974 14.143 55.093 14.143 55.093 14.143ZM62.144 5.143C62.144 5.143 62.585 5.143 62.585 5.143C62.585 5.143 62.585 14.143 62.585 14.143C62.585 14.143 62.144 14.143 62.144 14.143ZM64.348 5.143C64.348 5.143 64.789 5.143 64.789 5.143C64.789 5.143 64.789 6.000 64.789 6.000C64.789 6.000 64.348 6.000 64.348 6.000ZM67.874 5.143C67.874 5.143 69.196 5.143 69.196 5.143C69.196 5.143 69.196 14.143 69.196 14.143C69.196 14.143 67.874 14.143 67.874 14.143ZM74.926 5.143C74.926 5.143 75.367 5.143 75.367 5.143C75.367 5.143 75.367 7.286 75.367 7.286C75.367 7.286 74.926 7.286 74.926 7.286ZM81.537 5.143C81.537 5.143 82.419 5.143 82.419 5.143C82.419 5.143 82.419 13.714 82.419 13.714C82.419 13.714 81.537 13.714 81.537 13.714ZM84.181 5.143C84.181 5.143 84.622 5.143 84.622 5.143C84.622 5.143 84.622 5.571 84.622 5.571C84.622 5.571 84.181 5.571 84.181 5.571ZM89.030 5.143C89.030 5.143 89.470 5.143 89.470 5.143C89.470 5.143 89.470 15.000 89.470 15.000C89.470 15.000 89.030 15.000 89.030 15.000ZM91.233 5.143C91.233 5.143 91.674 5.143 91.674 5.143C91.674 5.143 91.674 5.571 91.674 5.571C91.674 5.571 91.233 5.571 91.233 5.571ZM94.759 5.143C94.759 5.143 95.641 5.143 95.641 5.143C95.641 5.143 95.641 15.000 95.641 15.000C95.641 15.000 94.759 15.000 94.759 15.000ZM97.404 5.143C97.404 5.143 97.844 5.143 97.844 5.143C97.844 5.143 97.844 6.000 97.844 6.000C97.844 6.000 97.404 6.000 97.404 6.000ZM102.252 5.143C102.252 5.143 102.693 5.143 102.693 5.143C102.693 5.143 102.693 18.429 102.693 18.429C102.693 18.429 102.252 18.429 102.252 18.429ZM110.626 5.143C110.626 5.143 111.507 5.143 111.507 5.143C111.507 5.143 111.507 7.286 111.507 7.286C111.507 7.286 110.626 7.286 110.626 7.286ZM115.474 5.143C115.474 5.143 116.796 5.143 116.796 5.143C116.796 5.143 116.796 13.286 116.796 13.286C116.796 13.286 115.474 13.286 115.474 13.286ZM118.559 5.143C118.559 5.143 119.000 5.143 119.000 5.143C119.000 5.143 119.000 5.571 119.000 5.571C119.000 5.571 118.559 5.571 118.559 5.571ZM20.274 5.571C20.274 5.571 20.715 5.571 20.715 5.571C20.715 5.571 20.715 18.000 20.715 18.000C20.715 18.000 20.274 18.000 20.274 18.000ZM29.530 5.571C29.530 5.571 29.970 5.571 29.970 5.571C29.970 5.571 29.970 12.429 29.970 12.429C29.970 12.429 29.530 12.429 29.530 12.429ZM35.700 5.571C35.700 5.571 36.141 5.571 36.141 5.571C36.141 5.571 36.141 8.571 36.141 8.571C36.141 8.571 35.700 8.571 35.700 8.571ZM37.904 5.571C37.904 5.571 38.785 5.571 38.785 5.571C38.785 5.571 38.785 6.000 38.785 6.000C38.785 6.000 37.904 6.000 37.904 6.000ZM39.667 5.571C39.667 5.571 41.870 5.571 41.870 5.571C41.870 5.571 41.870 6.000 41.870 6.000C41.870 6.000 39.667 6.000 39.667 6.000ZM42.752 5.571C42.752 5.571 43.193 5.571 43.193 5.571C43.193 5.571 43.193 13.714 43.193 13.714C43.193 13.714 42.752 13.714 42.752 13.714ZM47.600 5.571C47.600 5.571 48.481 5.571 48.481 5.571C48.481 5.571 48.481 18.429 48.481 18.429C48.481 18.429 47.600 18.429 47.600 18.429ZM67.433 5.571C67.433 5.571 67.874 5.571 67.874 5.571C67.874 5.571 67.874 18.000 67.874 18.000C67.874 18.000 67.433 18.000 67.433 18.000ZM74.485 5.571C74.485 5.571 74.926 5.571 74.926 5.571C74.926 5.571 74.926 7.714 74.926 7.714C74.926 7.714 74.485 7.714 74.485 7.714ZM80.656 5.571C80.656 5.571 81.537 5.571 81.537 5.571C81.537 5.571 81.537 18.429 81.537 18.429C81.537 18.429 80.656 18.429 80.656 18.429ZM88.589 5.571C88.589 5.571 89.030 5.571 89.030 5.571C89.030 5.571 89.030 18.429 89.030 18.429C89.030 18.429 88.589 18.429 88.589 18.429ZM94.319 5.571C94.319 5.571 94.759 5.571 94.759 5.571C94.759 5.571 94.759 17.571 94.759 17.571C94.759 17.571 94.319 17.571 94.319 17.571ZM110.185 5.571C110.185 5.571 110.626 5.571 110.626 5.571C110.626 5.571 110.626 8.571 110.626 8.571C110.626 8.571 110.185 8.571 110.185 8.571ZM19.393 6.000C19.393 6.000 20.274 6.000 20.274 6.000C20.274 6.000 20.274 7.286 20.274 7.286C20.274 7.286 19.393 7.286 19.393 7.286ZM23.359 6.000C23.359 6.000 25.122 6.000 25.122 6.000C25.122 6.000 25.122 6.429 25.122 6.429C25.122 6.429 23.359 6.429 23.359 6.429ZM26.444 6.000C26.444 6.000 29.089 6.000 29.089 6.000C29.089 6.000 29.089 6.429 29.089 6.429C29.089 6.429 26.444 6.429 26.444 6.429ZM29.970 6.000C29.970 6.000 30.411 6.000 30.411 6.000C30.411 6.000 30.411 11.571 30.411 11.571C30.411 11.571 29.970 11.571 29.970 11.571ZM34.819 6.000C34.819 6.000 35.700 6.000 35.700 6.000C35.700 6.000 35.700 9.857 35.700 9.857C35.700 9.857 34.819 9.857 34.819 9.857ZM37.022 6.000C37.022 6.000 37.463 6.000 37.463 6.000C37.463 6.000 37.463 6.857 37.463 6.857C37.463 6.857 37.022 6.857 37.022 6.857ZM40.548 6.000C40.548 6.000 41.870 6.000 41.870 6.000C41.870 6.000 41.870 6.429 41.870 6.429C41.870 6.429 40.548 6.429 40.548 6.429ZM43.193 6.000C43.193 6.000 43.633 6.000 43.633 6.000C43.633 6.000 43.633 13.286 43.633 13.286C43.633 13.286 43.193 13.286 43.193 13.286ZM47.159 6.000C47.159 6.000 47.600 6.000 47.600 6.000C47.600 6.000 47.600 7.286 47.600 7.286C47.600 7.286 47.159 7.286 47.159 7.286ZM66.993 6.000C66.993 6.000 67.433 6.000 67.433 6.000C67.433 6.000 67.433 7.286 67.433 7.286C67.433 7.286 66.993 7.286 66.993 7.286ZM80.215 6.000C80.215 6.000 80.656 6.000 80.656 6.000C80.656 6.000 80.656 7.286 80.656 7.286C80.656 7.286 80.215 7.286 80.215 7.286ZM93.878 6.000C93.878 6.000 94.319 6.000 94.319 6.000C94.319 6.000 94.319 7.714 94.319 7.714C94.319 7.714 93.878 7.714 93.878 7.714ZM109.744 6.000C109.744 6.000 110.185 6.000 110.185 6.000C110.185 6.000 110.185 9.000 110.185 9.000C110.185 9.000 109.744 9.000 109.744 9.000ZM112.389 6.000C112.389 6.000 112.830 6.000 112.830 6.000C112.830 6.000 112.830 6.429 112.830 6.429C112.830 6.429 112.389 6.429 112.389 6.429ZM114.593 6.000C114.593 6.000 115.033 6.000 115.033 6.000C115.033 6.000 115.033 6.429 115.033 6.429C115.033 6.429 114.593 6.429 114.593 6.429ZM4.848 6.429C4.848 6.429 5.289 6.429 5.289 6.429C5.289 6.429 5.289 18.000 5.289 18.000C5.289 18.000 4.848 18.000 4.848 18.000ZM13.222 6.429C13.222 6.429 14.104 6.429 14.104 6.429C14.104 6.429 14.104 8.571 14.104 8.571C14.104 8.571 13.222 8.571 13.222 8.571ZM23.359 6.429C23.359 6.429 24.681 6.429 24.681 6.429C24.681 6.429 24.681 6.857 24.681 6.857C24.681 6.857 23.359 6.857 23.359 6.857ZM27.326 6.429C27.326 6.429 29.089 6.429 29.089 6.429C29.089 6.429 29.089 8.143 29.089 8.143C29.089 8.143 27.326 8.143 27.326 8.143ZM40.989 6.429C40.989 6.429 41.870 6.429 41.870 6.429C41.870 6.429 41.870 7.286 41.870 7.286C41.870 7.286 40.989 7.286 40.989 7.286ZM61.704 6.429C61.704 6.429 62.144 6.429 62.144 6.429C62.144 6.429 62.144 18.429 62.144 18.429C62.144 18.429 61.704 18.429 61.704 18.429ZM74.044 6.429C74.044 6.429 74.485 6.429 74.485 6.429C74.485 6.429 74.485 8.143 74.485 8.143C74.485 8.143 74.044 8.143 74.044 8.143ZM93.437 6.429C93.437 6.429 93.878 6.429 93.878 6.429C93.878 6.429 93.878 6.857 93.878 6.857C93.878 6.857 93.437 6.857 93.437 6.857ZM101.811 6.429C101.811 6.429 102.252 6.429 102.252 6.429C102.252 6.429 102.252 18.429 102.252 18.429C102.252 18.429 101.811 18.429 101.811 18.429ZM109.304 6.429C109.304 6.429 109.744 6.429 109.744 6.429C109.744 6.429 109.744 10.714 109.744 10.714C109.744 10.714 109.304 10.714 109.304 10.714ZM111.507 6.429C111.507 6.429 111.948 6.429 111.948 6.429C111.948 6.429 111.948 6.857 111.948 6.857C111.948 6.857 111.507 6.857 111.507 6.857ZM12.781 6.857C12.781 6.857 13.222 6.857 13.222 6.857C13.222 6.857 13.222 10.714 13.222 10.714C13.222 10.714 12.781 10.714 12.781 10.714ZM23.359 6.857C23.359 6.857 24.241 6.857 24.241 6.857C24.241 6.857 24.241 7.286 24.241 7.286C24.241 7.286 23.359 7.286 23.359 7.286ZM33.937 6.857C33.937 6.857 34.819 6.857 34.819 6.857C34.819 6.857 34.819 12.857 34.819 12.857C34.819 12.857 33.937 12.857 33.937 12.857ZM70.078 6.857C70.078 6.857 70.519 6.857 70.519 6.857C70.519 6.857 70.519 11.571 70.519 11.571C70.519 11.571 70.078 11.571 70.078 11.571ZM73.604 6.857C73.604 6.857 74.044 6.857 74.044 6.857C74.044 6.857 74.044 8.571 74.044 8.571C74.044 8.571 73.604 8.571 73.604 8.571ZM76.248 6.857C76.248 6.857 78.011 6.857 78.011 6.857C78.011 6.857 78.011 7.286 78.011 7.286C78.011 7.286 76.248 7.286 76.248 7.286ZM108.863 6.857C108.863 6.857 109.304 6.857 109.304 6.857C109.304 6.857 109.304 11.571 109.304 11.571C109.304 11.571 108.863 11.571 108.863 11.571ZM12.341 7.286C12.341 7.286 12.781 7.286 12.781 7.286C12.781 7.286 12.781 10.714 12.781 10.714C12.781 10.714 12.341 10.714 12.341 10.714ZM19.833 7.286C19.833 7.286 20.274 7.286 20.274 7.286C20.274 7.286 20.274 8.143 20.274 8.143C20.274 8.143 19.833 8.143 19.833 8.143ZM23.359 7.286C23.359 7.286 23.800 7.286 23.800 7.286C23.800 7.286 23.800 7.714 23.800 7.714C23.800 7.714 23.359 7.714 23.359 7.714ZM36.141 7.286C36.141 7.286 36.581 7.286 36.581 7.286C36.581 7.286 36.581 8.143 36.581 8.143C36.581 8.143 36.141 8.143 36.141 8.143ZM41.430 7.286C41.430 7.286 41.870 7.286 41.870 7.286C41.870 7.286 41.870 15.857 41.870 15.857C41.870 15.857 41.430 15.857 41.430 15.857ZM43.633 7.286C43.633 7.286 44.074 7.286 44.074 7.286C44.074 7.286 44.074 11.143 44.074 11.143C44.074 11.143 43.633 11.143 43.633 11.143ZM50.244 7.286C50.244 7.286 50.685 7.286 50.685 7.286C50.685 7.286 50.685 9.429 50.685 9.429C50.685 9.429 50.244 9.429 50.244 9.429ZM54.652 7.286C54.652 7.286 55.093 7.286 55.093 7.286C55.093 7.286 55.093 18.429 55.093 18.429C55.093 18.429 54.652 18.429 54.652 18.429ZM56.415 7.286C56.415 7.286 57.296 7.286 57.296 7.286C57.296 7.286 57.296 8.143 57.296 8.143C57.296 8.143 56.415 8.143 56.415 8.143ZM61.263 7.286C61.263 7.286 61.704 7.286 61.704 7.286C61.704 7.286 61.704 18.857 61.704 18.857C61.704 18.857 61.263 18.857 61.263 18.857ZM73.163 7.286C73.163 7.286 73.604 7.286 73.604 7.286C73.604 7.286 73.604 9.000 73.604 9.000C73.604 9.000 73.163 9.000 73.163 9.000ZM110.626 7.286C110.626 7.286 111.067 7.286 111.067 7.286C111.067 7.286 111.067 7.714 111.067 7.714C111.067 7.714 110.626 7.714 110.626 7.714ZM7.933 7.714C7.933 7.714 8.374 7.714 8.374 7.714C8.374 7.714 8.374 9.429 8.374 9.429C8.374 9.429 7.933 9.429 7.933 9.429ZM11.900 7.714C11.900 7.714 12.341 7.714 12.341 7.714C12.341 7.714 12.341 10.286 12.341 10.286C12.341 10.286 11.900 10.286 11.900 10.286ZM33.496 7.714C33.496 7.714 33.937 7.714 33.937 7.714C33.937 7.714 33.937 18.000 33.937 18.000C33.937 18.000 33.496 18.000 33.496 18.000ZM83.300 7.714C83.300 7.714 83.741 7.714 83.741 7.714C83.741 7.714 83.741 8.571 83.741 8.571C83.741 8.571 83.300 8.571 83.300 8.571ZM88.148 7.714C88.148 7.714 88.589 7.714 88.589 7.714C88.589 7.714 88.589 18.857 88.589 18.857C88.589 18.857 88.148 18.857 88.148 18.857ZM89.911 7.714C89.911 7.714 90.793 7.714 90.793 7.714C90.793 7.714 90.793 8.571 90.793 8.571C90.793 8.571 89.911 8.571 89.911 8.571ZM108.422 7.714C108.422 7.714 108.863 7.714 108.863 7.714C108.863 7.714 108.863 18.857 108.863 18.857C108.863 18.857 108.422 18.857 108.422 18.857ZM117.237 7.714C117.237 7.714 117.678 7.714 117.678 7.714C117.678 7.714 117.678 9.429 117.678 9.429C117.678 9.429 117.237 9.429 117.237 9.429ZM4.407 8.143C4.407 8.143 4.848 8.143 4.848 8.143C4.848 8.143 4.848 18.000 4.848 18.000C4.848 18.000 4.407 18.000 4.407 18.000ZM8.374 8.143C8.374 8.143 11.900 8.143 11.900 8.143C11.900 8.143 11.900 9.000 11.900 9.000C11.900 9.000 8.374 9.000 8.374 9.000ZM27.767 8.143C27.767 8.143 29.089 8.143 29.089 8.143C29.089 8.143 29.089 14.143 29.089 14.143C29.089 14.143 27.767 14.143 27.767 14.143ZM56.415 8.143C56.415 8.143 56.856 8.143 56.856 8.143C56.856 8.143 56.856 10.714 56.856 10.714C56.856 10.714 56.415 10.714 56.415 10.714ZM72.722 8.143C72.722 8.143 73.163 8.143 73.163 8.143C73.163 8.143 73.163 17.571 73.163 17.571C73.163 17.571 72.722 17.571 72.722 17.571ZM96.522 8.143C96.522 8.143 96.963 8.143 96.963 8.143C96.963 8.143 96.963 11.571 96.963 11.571C96.963 11.571 96.522 11.571 96.522 11.571ZM103.133 8.143C103.133 8.143 104.015 8.143 104.015 8.143C104.015 8.143 104.015 9.429 104.015 9.429C104.015 9.429 103.133 9.429 103.133 9.429ZM107.981 8.143C107.981 8.143 108.422 8.143 108.422 8.143C108.422 8.143 108.422 18.429 108.422 18.429C108.422 18.429 107.981 18.429 107.981 18.429ZM13.222 8.571C13.222 8.571 13.663 8.571 13.663 8.571C13.663 8.571 13.663 9.857 13.663 9.857C13.663 9.857 13.222 9.857 13.222 9.857ZM19.833 8.571C19.833 8.571 20.274 8.571 20.274 8.571C20.274 8.571 20.274 19.286 20.274 19.286C20.274 19.286 19.833 19.286 19.833 19.286ZM22.037 8.571C22.037 8.571 22.478 8.571 22.478 8.571C22.478 8.571 22.478 9.857 22.478 9.857C22.478 9.857 22.037 9.857 22.037 9.857ZM33.056 8.571C33.056 8.571 33.496 8.571 33.496 8.571C33.496 8.571 33.496 17.571 33.496 17.571C33.496 17.571 33.056 17.571 33.056 17.571ZM54.211 8.571C54.211 8.571 54.652 8.571 54.652 8.571C54.652 8.571 54.652 18.857 54.652 18.857C54.652 18.857 54.211 18.857 54.211 18.857ZM72.281 8.571C72.281 8.571 72.722 8.571 72.722 8.571C72.722 8.571 72.722 17.143 72.722 17.143C72.722 17.143 72.281 17.143 72.281 17.143ZM89.911 8.571C89.911 8.571 90.352 8.571 90.352 8.571C90.352 8.571 90.352 11.143 90.352 11.143C90.352 11.143 89.911 11.143 89.911 11.143ZM96.963 8.571C96.963 8.571 97.404 8.571 97.404 8.571C97.404 8.571 97.404 11.571 97.404 11.571C97.404 11.571 96.963 11.571 96.963 11.571ZM101.370 8.571C101.370 8.571 101.811 8.571 101.811 8.571C101.811 8.571 101.811 18.429 101.811 18.429C101.811 18.429 101.370 18.429 101.370 18.429ZM11.019 9.000C11.019 9.000 11.900 9.000 11.900 9.000C11.900 9.000 11.900 9.429 11.900 9.429C11.900 9.429 11.019 9.429 11.019 9.429ZM32.615 9.000C32.615 9.000 33.056 9.000 33.056 9.000C33.056 9.000 33.056 17.571 33.056 17.571C33.056 17.571 32.615 17.571 32.615 17.571ZM70.519 9.000C70.519 9.000 70.959 9.000 70.959 9.000C70.959 9.000 70.959 11.143 70.959 11.143C70.959 11.143 70.519 11.143 70.519 11.143ZM71.841 9.000C71.841 9.000 72.281 9.000 72.281 9.000C72.281 9.000 72.281 14.571 72.281 14.571C72.281 14.571 71.841 14.571 71.841 14.571ZM87.707 9.000C87.707 9.000 88.148 9.000 88.148 9.000C88.148 9.000 88.148 18.857 88.148 18.857C88.148 18.857 87.707 18.857 87.707 18.857ZM107.541 9.000C107.541 9.000 107.981 9.000 107.981 9.000C107.981 9.000 107.981 18.429 107.981 18.429C107.981 18.429 107.541 18.429 107.541 18.429ZM5.730 9.429C5.730 9.429 7.493 9.429 7.493 9.429C7.493 9.429 7.493 9.857 7.493 9.857C7.493 9.857 5.730 9.857 5.730 9.857ZM11.459 9.429C11.459 9.429 11.900 9.429 11.900 9.429C11.900 9.429 11.900 9.857 11.900 9.857C11.900 9.857 11.459 9.857 11.459 9.857ZM27.326 9.429C27.326 9.429 27.767 9.429 27.767 9.429C27.767 9.429 27.767 16.286 27.767 16.286C27.767 16.286 27.326 16.286 27.326 16.286ZM60.822 9.429C60.822 9.429 61.263 9.429 61.263 9.429C61.263 9.429 61.263 18.857 61.263 18.857C61.263 18.857 60.822 18.857 60.822 18.857ZM63.026 9.429C63.026 9.429 63.467 9.429 63.467 9.429C63.467 9.429 63.467 10.286 63.467 10.286C63.467 10.286 63.026 10.286 63.026 10.286ZM70.959 9.429C70.959 9.429 71.841 9.429 71.841 9.429C71.841 9.429 71.841 11.571 71.841 11.571C71.841 11.571 70.959 11.571 70.959 11.571ZM93.878 9.429C93.878 9.429 94.319 9.429 94.319 9.429C94.319 9.429 94.319 18.000 94.319 18.000C94.319 18.000 93.878 18.000 93.878 18.000ZM97.404 9.429C97.404 9.429 97.844 9.429 97.844 9.429C97.844 9.429 97.844 11.571 97.844 11.571C97.844 11.571 97.404 11.571 97.404 11.571ZM100.930 9.429C100.930 9.429 101.370 9.429 101.370 9.429C101.370 9.429 101.370 18.857 101.370 18.857C101.370 18.857 100.930 18.857 100.930 18.857ZM103.133 9.429C103.133 9.429 103.574 9.429 103.574 9.429C103.574 9.429 103.574 11.571 103.574 11.571C103.574 11.571 103.133 11.571 103.133 11.571ZM107.100 9.429C107.100 9.429 107.541 9.429 107.541 9.429C107.541 9.429 107.541 18.429 107.541 18.429C107.541 18.429 107.100 18.429 107.100 18.429ZM3.967 9.857C3.967 9.857 4.407 9.857 4.407 9.857C4.407 9.857 4.407 18.000 4.407 18.000C4.407 18.000 3.967 18.000 3.967 18.000ZM5.730 9.857C5.730 9.857 7.052 9.857 7.052 9.857C7.052 9.857 7.052 10.714 7.052 10.714C7.052 10.714 5.730 10.714 5.730 10.714ZM34.819 9.857C34.819 9.857 35.259 9.857 35.259 9.857C35.259 9.857 35.259 11.143 35.259 11.143C35.259 11.143 34.819 11.143 34.819 11.143ZM40.989 9.857C40.989 9.857 41.430 9.857 41.430 9.857C41.430 9.857 41.430 16.286 41.430 16.286C41.430 16.286 40.989 16.286 40.989 16.286ZM49.363 9.857C49.363 9.857 49.804 9.857 49.804 9.857C49.804 9.857 49.804 12.000 49.804 12.000C49.804 12.000 49.363 12.000 49.363 12.000ZM80.215 9.857C80.215 9.857 80.656 9.857 80.656 9.857C80.656 9.857 80.656 18.857 80.656 18.857C80.656 18.857 80.215 18.857 80.215 18.857ZM97.844 9.857C97.844 9.857 99.167 9.857 99.167 9.857C99.167 9.857 99.167 12.000 99.167 12.000C99.167 12.000 97.844 12.000 97.844 12.000ZM19.393 10.286C19.393 10.286 19.833 10.286 19.833 10.286C19.833 10.286 19.833 20.143 19.833 20.143C19.833 20.143 19.393 20.143 19.393 20.143ZM32.174 10.286C32.174 10.286 32.615 10.286 32.615 10.286C32.615 10.286 32.615 16.714 32.615 16.714C32.615 16.714 32.174 16.714 32.174 16.714ZM47.159 10.286C47.159 10.286 47.600 10.286 47.600 10.286C47.600 10.286 47.600 18.857 47.600 18.857C47.600 18.857 47.159 18.857 47.159 18.857ZM66.993 10.286C66.993 10.286 67.433 10.286 67.433 10.286C67.433 10.286 67.433 18.429 67.433 18.429C67.433 18.429 66.993 18.429 66.993 18.429ZM99.167 10.286C99.167 10.286 100.048 10.286 100.048 10.286C100.048 10.286 100.048 12.000 100.048 12.000C100.048 12.000 99.167 12.000 99.167 12.000ZM100.489 10.286C100.489 10.286 100.930 10.286 100.930 10.286C100.930 10.286 100.930 18.429 100.930 18.429C100.930 18.429 100.489 18.429 100.489 18.429ZM106.659 10.286C106.659 10.286 107.100 10.286 107.100 10.286C107.100 10.286 107.100 17.571 107.100 17.571C107.100 17.571 106.659 17.571 106.659 17.571ZM5.730 10.714C5.730 10.714 6.611 10.714 6.611 10.714C6.611 10.714 6.611 11.571 6.611 11.571C6.611 11.571 5.730 11.571 5.730 11.571ZM53.770 10.714C53.770 10.714 54.211 10.714 54.211 10.714C54.211 10.714 54.211 18.429 54.211 18.429C54.211 18.429 53.770 18.429 53.770 18.429ZM82.419 10.714C82.419 10.714 82.859 10.714 82.859 10.714C82.859 10.714 82.859 11.571 82.859 11.571C82.859 11.571 82.419 11.571 82.419 11.571ZM100.048 10.714C100.048 10.714 100.489 10.714 100.489 10.714C100.489 10.714 100.489 18.000 100.489 18.000C100.489 18.000 100.048 18.000 100.048 18.000ZM31.733 11.143C31.733 11.143 32.174 11.143 32.174 11.143C32.174 11.143 32.174 15.857 32.174 15.857C32.174 15.857 31.733 15.857 31.733 15.857ZM60.381 11.143C60.381 11.143 60.822 11.143 60.822 11.143C60.822 11.143 60.822 18.857 60.822 18.857C60.822 18.857 60.381 18.857 60.381 18.857ZM73.163 11.143C73.163 11.143 73.604 11.143 73.604 11.143C73.604 11.143 73.604 18.429 73.604 18.429C73.604 18.429 73.163 18.429 73.163 18.429ZM87.267 11.143C87.267 11.143 87.707 11.143 87.707 11.143C87.707 11.143 87.707 18.429 87.707 18.429C87.707 18.429 87.267 18.429 87.267 18.429ZM93.437 11.143C93.437 11.143 93.878 11.143 93.878 11.143C93.878 11.143 93.878 18.429 93.878 18.429C93.878 18.429 93.437 18.429 93.437 18.429ZM114.593 11.143C114.593 11.143 115.033 11.143 115.033 11.143C115.033 11.143 115.033 18.429 115.033 18.429C115.033 18.429 114.593 18.429 114.593 18.429ZM5.730 11.571C5.730 11.571 6.170 11.571 6.170 11.571C6.170 11.571 6.170 13.714 6.170 13.714C6.170 13.714 5.730 13.714 5.730 13.714ZM46.719 11.571C46.719 11.571 47.159 11.571 47.159 11.571C47.159 11.571 47.159 18.429 47.159 18.429C47.159 18.429 46.719 18.429 46.719 18.429ZM71.400 11.571C71.400 11.571 71.841 11.571 71.841 11.571C71.841 11.571 71.841 13.286 71.841 13.286C71.841 13.286 71.400 13.286 71.400 13.286ZM73.604 11.571C73.604 11.571 74.044 11.571 74.044 11.571C74.044 11.571 74.044 18.857 74.044 18.857C74.044 18.857 73.604 18.857 73.604 18.857ZM79.774 11.571C79.774 11.571 80.215 11.571 80.215 11.571C80.215 11.571 80.215 18.429 80.215 18.429C80.215 18.429 79.774 18.429 79.774 18.429ZM3.526 12.000C3.526 12.000 3.967 12.000 3.967 12.000C3.967 12.000 3.967 18.000 3.967 18.000C3.967 18.000 3.526 18.000 3.526 18.000ZM26.885 12.000C26.885 12.000 27.326 12.000 27.326 12.000C27.326 12.000 27.326 16.714 27.326 16.714C27.326 16.714 26.885 16.714 26.885 16.714ZM40.548 12.000C40.548 12.000 40.989 12.000 40.989 12.000C40.989 12.000 40.989 16.714 40.989 16.714C40.989 16.714 40.548 16.714 40.548 16.714ZM53.330 12.000C53.330 12.000 53.770 12.000 53.770 12.000C53.770 12.000 53.770 18.429 53.770 18.429C53.770 18.429 53.330 18.429 53.330 18.429ZM59.941 12.000C59.941 12.000 60.381 12.000 60.381 12.000C60.381 12.000 60.381 18.429 60.381 18.429C60.381 18.429 59.941 18.429 59.941 18.429ZM66.552 12.000C66.552 12.000 66.993 12.000 66.993 12.000C66.993 12.000 66.993 18.429 66.993 18.429C66.993 18.429 66.552 18.429 66.552 18.429ZM99.607 12.000C99.607 12.000 100.048 12.000 100.048 12.000C100.048 12.000 100.048 12.429 100.048 12.429C100.048 12.429 99.607 12.429 99.607 12.429ZM106.219 12.000C106.219 12.000 106.659 12.000 106.659 12.000C106.659 12.000 106.659 17.143 106.659 17.143C106.659 17.143 106.219 17.143 106.219 17.143ZM114.152 12.000C114.152 12.000 114.593 12.000 114.593 12.000C114.593 12.000 114.593 18.429 114.593 18.429C114.593 18.429 114.152 18.429 114.152 18.429ZM18.952 12.429C18.952 12.429 19.393 12.429 19.393 12.429C19.393 12.429 19.393 22.286 19.393 22.286C19.393 22.286 18.952 22.286 18.952 22.286ZM86.826 12.429C86.826 12.429 87.267 12.429 87.267 12.429C87.267 12.429 87.267 18.429 87.267 18.429C87.267 18.429 86.826 18.429 86.826 18.429ZM95.641 12.429C95.641 12.429 96.081 12.429 96.081 12.429C96.081 12.429 96.081 12.857 96.081 12.857C96.081 12.857 95.641 12.857 95.641 12.857ZM3.085 12.857C3.085 12.857 3.526 12.857 3.526 12.857C3.526 12.857 3.526 18.000 3.526 18.000C3.526 18.000 3.085 18.000 3.085 18.000ZM20.715 12.857C20.715 12.857 21.156 12.857 21.156 12.857C21.156 12.857 21.156 18.000 21.156 18.000C21.156 18.000 20.715 18.000 20.715 18.000ZM33.937 12.857C33.937 12.857 34.378 12.857 34.378 12.857C34.378 12.857 34.378 18.000 34.378 18.000C34.378 18.000 33.937 18.000 33.937 18.000ZM48.481 12.857C48.481 12.857 48.922 12.857 48.922 12.857C48.922 12.857 48.922 18.429 48.922 18.429C48.922 18.429 48.481 18.429 48.481 18.429ZM52.889 12.857C52.889 12.857 53.330 12.857 53.330 12.857C53.330 12.857 53.330 18.000 53.330 18.000C53.330 18.000 52.889 18.000 52.889 18.000ZM79.333 12.857C79.333 12.857 79.774 12.857 79.774 12.857C79.774 12.857 79.774 18.000 79.774 18.000C79.774 18.000 79.333 18.000 79.333 18.000ZM86.385 12.857C86.385 12.857 86.826 12.857 86.826 12.857C86.826 12.857 86.826 18.000 86.826 18.000C86.826 18.000 86.385 18.000 86.385 18.000ZM26.444 13.286C26.444 13.286 26.885 13.286 26.885 13.286C26.885 13.286 26.885 17.143 26.885 17.143C26.885 17.143 26.444 17.143 26.444 17.143ZM40.107 13.286C40.107 13.286 40.548 13.286 40.548 13.286C40.548 13.286 40.548 17.143 40.548 17.143C40.548 17.143 40.107 17.143 40.107 17.143ZM59.500 13.286C59.500 13.286 59.941 13.286 59.941 13.286C59.941 13.286 59.941 17.571 59.941 17.571C59.941 17.571 59.500 17.571 59.500 17.571ZM66.111 13.286C66.111 13.286 66.552 13.286 66.552 13.286C66.552 13.286 66.552 18.429 66.552 18.429C66.552 18.429 66.111 18.429 66.111 18.429ZM74.044 13.286C74.044 13.286 74.485 13.286 74.485 13.286C74.485 13.286 74.485 18.857 74.485 18.857C74.485 18.857 74.044 18.857 74.044 18.857ZM85.944 13.286C85.944 13.286 86.385 13.286 86.385 13.286C86.385 13.286 86.385 15.857 86.385 15.857C86.385 15.857 85.944 15.857 85.944 15.857ZM92.996 13.286C92.996 13.286 93.437 13.286 93.437 13.286C93.437 13.286 93.437 18.429 93.437 18.429C93.437 18.429 92.996 18.429 92.996 18.429ZM113.711 13.286C113.711 13.286 114.152 13.286 114.152 13.286C114.152 13.286 114.152 17.571 114.152 17.571C114.152 17.571 113.711 17.571 113.711 17.571ZM115.474 13.286C115.474 13.286 116.356 13.286 116.356 13.286C116.356 13.286 116.356 14.143 116.356 14.143C116.356 14.143 115.474 14.143 115.474 14.143ZM14.544 13.714C14.544 13.714 15.867 13.714 15.867 13.714C15.867 13.714 15.867 15.000 15.867 15.000C15.867 15.000 14.544 15.000 14.544 15.000ZM18.511 13.714C18.511 13.714 18.952 13.714 18.952 13.714C18.952 13.714 18.952 23.571 18.952 23.571C18.952 23.571 18.511 23.571 18.511 23.571ZM46.278 13.714C46.278 13.714 46.719 13.714 46.719 13.714C46.719 13.714 46.719 18.429 46.719 18.429C46.719 18.429 46.278 18.429 46.278 18.429ZM52.448 13.714C52.448 13.714 52.889 13.714 52.889 13.714C52.889 13.714 52.889 16.286 52.889 16.286C52.889 16.286 52.448 16.286 52.448 16.286ZM59.059 13.714C59.059 13.714 59.500 13.714 59.500 13.714C59.500 13.714 59.500 17.143 59.500 17.143C59.500 17.143 59.059 17.143 59.059 17.143ZM81.537 13.714C81.537 13.714 81.978 13.714 81.978 13.714C81.978 13.714 81.978 18.429 81.978 18.429C81.978 18.429 81.537 18.429 81.537 18.429ZM85.504 13.714C85.504 13.714 85.944 13.714 85.944 13.714C85.944 13.714 85.944 15.429 85.944 15.429C85.944 15.429 85.504 15.429 85.504 15.429ZM105.778 13.714C105.778 13.714 106.219 13.714 106.219 13.714C106.219 13.714 106.219 16.286 106.219 16.286C106.219 16.286 105.778 16.286 105.778 16.286ZM113.270 13.714C113.270 13.714 113.711 13.714 113.711 13.714C113.711 13.714 113.711 17.143 113.711 17.143C113.711 17.143 113.270 17.143 113.270 17.143ZM14.104 14.143C14.104 14.143 14.544 14.143 14.544 14.143C14.544 14.143 14.544 18.000 14.544 18.000C14.544 18.000 14.104 18.000 14.104 18.000ZM27.767 14.143C27.767 14.143 28.648 14.143 28.648 14.143C28.648 14.143 28.648 15.000 28.648 15.000C28.648 15.000 27.767 15.000 27.767 15.000ZM39.667 14.143C39.667 14.143 40.107 14.143 40.107 14.143C40.107 14.143 40.107 17.571 40.107 17.571C40.107 17.571 39.667 17.571 39.667 17.571ZM52.007 14.143C52.007 14.143 52.448 14.143 52.448 14.143C52.448 14.143 52.448 16.286 52.448 16.286C52.448 16.286 52.007 16.286 52.007 16.286ZM55.093 14.143C55.093 14.143 55.533 14.143 55.533 14.143C55.533 14.143 55.533 18.429 55.533 18.429C55.533 18.429 55.093 18.429 55.093 18.429ZM58.619 14.143C58.619 14.143 59.059 14.143 59.059 14.143C59.059 14.143 59.059 15.857 59.059 15.857C59.059 15.857 58.619 15.857 58.619 15.857ZM67.874 14.143C67.874 14.143 68.756 14.143 68.756 14.143C68.756 14.143 68.756 15.429 68.756 15.429C68.756 15.429 67.874 15.429 67.874 15.429ZM115.474 14.143C115.474 14.143 115.915 14.143 115.915 14.143C115.915 14.143 115.915 18.429 115.915 18.429C115.915 18.429 115.474 18.429 115.474 18.429ZM26.004 14.571C26.004 14.571 26.444 14.571 26.444 14.571C26.444 14.571 26.444 17.571 26.444 17.571C26.444 17.571 26.004 17.571 26.004 17.571ZM45.837 14.571C45.837 14.571 46.278 14.571 46.278 14.571C46.278 14.571 46.278 18.000 46.278 18.000C46.278 18.000 45.837 18.000 45.837 18.000ZM51.567 14.571C51.567 14.571 52.007 14.571 52.007 14.571C52.007 14.571 52.007 16.286 52.007 16.286C52.007 16.286 51.567 16.286 51.567 16.286ZM74.485 14.571C74.485 14.571 74.926 14.571 74.926 14.571C74.926 14.571 74.926 18.857 74.926 18.857C74.926 18.857 74.485 18.857 74.485 18.857ZM85.063 14.571C85.063 14.571 85.504 14.571 85.504 14.571C85.504 14.571 85.504 15.857 85.504 15.857C85.504 15.857 85.063 15.857 85.063 15.857ZM92.556 14.571C92.556 14.571 92.996 14.571 92.996 14.571C92.996 14.571 92.996 18.429 92.996 18.429C92.996 18.429 92.556 18.429 92.556 18.429ZM112.830 14.571C112.830 14.571 113.270 14.571 113.270 14.571C113.270 14.571 113.270 16.714 113.270 16.714C113.270 16.714 112.830 16.714 112.830 16.714ZM2.644 15.000C2.644 15.000 3.085 15.000 3.085 15.000C3.085 15.000 3.085 18.000 3.085 18.000C3.085 18.000 2.644 18.000 2.644 18.000ZM13.222 15.000C13.222 15.000 14.104 15.000 14.104 15.000C14.104 15.000 14.104 18.429 14.104 18.429C14.104 18.429 13.222 18.429 13.222 18.429ZM14.544 15.000C14.544 15.000 15.426 15.000 15.426 15.000C15.426 15.000 15.426 16.714 15.426 16.714C15.426 16.714 14.544 16.714 14.544 16.714ZM25.563 15.000C25.563 15.000 26.004 15.000 26.004 15.000C26.004 15.000 26.004 18.000 26.004 18.000C26.004 18.000 25.563 18.000 25.563 18.000ZM27.767 15.000C27.767 15.000 28.207 15.000 28.207 15.000C28.207 15.000 28.207 15.857 28.207 15.857C28.207 15.857 27.767 15.857 27.767 15.857ZM51.126 15.000C51.126 15.000 51.567 15.000 51.567 15.000C51.567 15.000 51.567 16.286 51.567 16.286C51.567 16.286 51.126 16.286 51.126 16.286ZM58.178 15.000C58.178 15.000 58.619 15.000 58.619 15.000C58.619 15.000 58.619 15.857 58.619 15.857C58.619 15.857 58.178 15.857 58.178 15.857ZM76.689 15.000C76.689 15.000 77.130 15.000 77.130 15.000C77.130 15.000 77.130 16.714 77.130 16.714C77.130 16.714 76.689 16.714 76.689 16.714ZM81.978 15.000C81.978 15.000 82.419 15.000 82.419 15.000C82.419 15.000 82.419 18.000 82.419 18.000C82.419 18.000 81.978 18.000 81.978 18.000ZM84.622 15.000C84.622 15.000 85.063 15.000 85.063 15.000C85.063 15.000 85.063 15.857 85.063 15.857C85.063 15.857 84.622 15.857 84.622 15.857ZM90.793 15.000C90.793 15.000 91.233 15.000 91.233 15.000C91.233 15.000 91.233 16.714 91.233 16.714C91.233 16.714 90.793 16.714 90.793 16.714ZM94.759 15.000C94.759 15.000 95.200 15.000 95.200 15.000C95.200 15.000 95.200 16.286 95.200 16.286C95.200 16.286 94.759 16.286 94.759 16.286ZM99.607 15.000C99.607 15.000 100.048 15.000 100.048 15.000C100.048 15.000 100.048 17.571 100.048 17.571C100.048 17.571 99.607 17.571 99.607 17.571ZM104.015 15.000C104.015 15.000 104.456 15.000 104.456 15.000C104.456 15.000 104.456 17.143 104.456 17.143C104.456 17.143 104.015 17.143 104.015 17.143ZM2.204 15.429C2.204 15.429 2.644 15.429 2.644 15.429C2.644 15.429 2.644 18.429 2.644 18.429C2.644 18.429 2.204 18.429 2.204 18.429ZM12.781 15.429C12.781 15.429 13.222 15.429 13.222 15.429C13.222 15.429 13.222 18.429 13.222 18.429C13.222 18.429 12.781 18.429 12.781 18.429ZM34.378 15.429C34.378 15.429 34.819 15.429 34.819 15.429C34.819 15.429 34.819 18.429 34.819 18.429C34.819 18.429 34.378 18.429 34.378 18.429ZM39.226 15.429C39.226 15.429 39.667 15.429 39.667 15.429C39.667 15.429 39.667 17.571 39.667 17.571C39.667 17.571 39.226 17.571 39.226 17.571ZM55.533 15.429C55.533 15.429 55.974 15.429 55.974 15.429C55.974 15.429 55.974 18.000 55.974 18.000C55.974 18.000 55.533 18.000 55.533 18.000ZM57.737 15.429C57.737 15.429 58.178 15.429 58.178 15.429C58.178 15.429 58.178 15.857 58.178 15.857C58.178 15.857 57.737 15.857 57.737 15.857ZM63.467 15.429C63.467 15.429 64.789 15.429 64.789 15.429C64.789 15.429 64.789 15.857 64.789 15.857C64.789 15.857 63.467 15.857 63.467 15.857ZM67.874 15.429C67.874 15.429 68.315 15.429 68.315 15.429C68.315 15.429 68.315 17.143 68.315 17.143C68.315 17.143 67.874 17.143 67.874 17.143ZM74.926 15.429C74.926 15.429 75.367 15.429 75.367 15.429C75.367 15.429 75.367 18.429 75.367 18.429C75.367 18.429 74.926 18.429 74.926 18.429ZM76.248 15.429C76.248 15.429 76.689 15.429 76.689 15.429C76.689 15.429 76.689 17.143 76.689 17.143C76.689 17.143 76.248 17.143 76.248 17.143ZM83.741 15.429C83.741 15.429 84.622 15.429 84.622 15.429C84.622 15.429 84.622 15.857 84.622 15.857C84.622 15.857 83.741 15.857 83.741 15.857ZM89.030 15.429C89.030 15.429 89.470 15.429 89.470 15.429C89.470 15.429 89.470 18.429 89.470 18.429C89.470 18.429 89.030 18.429 89.030 18.429ZM90.352 15.429C90.352 15.429 90.793 15.429 90.793 15.429C90.793 15.429 90.793 17.143 90.793 17.143C90.793 17.143 90.352 17.143 90.352 17.143ZM91.233 15.429C91.233 15.429 91.674 15.429 91.674 15.429C91.674 15.429 91.674 16.714 91.674 16.714C91.674 16.714 91.233 16.714 91.233 16.714ZM104.456 15.429C104.456 15.429 104.896 15.429 104.896 15.429C104.896 15.429 104.896 16.714 104.896 16.714C104.896 16.714 104.456 16.714 104.456 16.714ZM112.389 15.429C112.389 15.429 112.830 15.429 112.830 15.429C112.830 15.429 112.830 16.714 112.830 16.714C112.830 16.714 112.389 16.714 112.389 16.714ZM117.237 15.429C117.237 15.429 118.119 15.429 118.119 15.429C118.119 15.429 118.119 16.714 118.119 16.714C118.119 16.714 117.237 16.714 117.237 16.714ZM5.730 15.857C5.730 15.857 6.170 15.857 6.170 15.857C6.170 15.857 6.170 18.000 6.170 18.000C6.170 18.000 5.730 18.000 5.730 18.000ZM11.900 15.857C11.900 15.857 12.781 15.857 12.781 15.857C12.781 15.857 12.781 18.429 12.781 18.429C12.781 18.429 11.900 18.429 11.900 18.429ZM18.070 15.857C18.070 15.857 18.511 15.857 18.511 15.857C18.511 15.857 18.511 23.571 18.511 23.571C18.511 23.571 18.070 23.571 18.070 23.571ZM21.156 15.857C21.156 15.857 21.596 15.857 21.596 15.857C21.596 15.857 21.596 18.000 21.596 18.000C21.596 18.000 21.156 18.000 21.156 18.000ZM24.681 15.857C24.681 15.857 25.563 15.857 25.563 15.857C25.563 15.857 25.563 18.000 25.563 18.000C25.563 18.000 24.681 18.000 24.681 18.000ZM38.785 15.857C38.785 15.857 39.226 15.857 39.226 15.857C39.226 15.857 39.226 18.000 39.226 18.000C39.226 18.000 38.785 18.000 38.785 18.000ZM49.804 15.857C49.804 15.857 51.126 15.857 51.126 15.857C51.126 15.857 51.126 16.714 51.126 16.714C51.126 16.714 49.804 16.714 49.804 16.714ZM55.974 15.857C55.974 15.857 56.415 15.857 56.415 15.857C56.415 15.857 56.415 18.000 56.415 18.000C56.415 18.000 55.974 18.000 55.974 18.000ZM56.856 15.857C56.856 15.857 57.737 15.857 57.737 15.857C57.737 15.857 57.737 16.714 57.737 16.714C57.737 16.714 56.856 16.714 56.856 16.714ZM62.144 15.857C62.144 15.857 64.348 15.857 64.348 15.857C64.348 15.857 64.348 16.714 64.348 16.714C64.348 16.714 62.144 16.714 62.144 16.714ZM65.670 15.857C65.670 15.857 66.111 15.857 66.111 15.857C66.111 15.857 66.111 18.429 66.111 18.429C66.111 18.429 65.670 18.429 65.670 18.429ZM75.367 15.857C75.367 15.857 76.248 15.857 76.248 15.857C76.248 15.857 76.248 18.000 76.248 18.000C76.248 18.000 75.367 18.000 75.367 18.000ZM82.419 15.857C82.419 15.857 84.181 15.857 84.181 15.857C84.181 15.857 84.181 16.714 84.181 16.714C84.181 16.714 82.419 16.714 82.419 16.714ZM89.470 15.857C89.470 15.857 90.352 15.857 90.352 15.857C90.352 15.857 90.352 17.571 90.352 17.571C90.352 17.571 89.470 17.571 89.470 17.571ZM102.693 15.857C102.693 15.857 104.015 15.857 104.015 15.857C104.015 15.857 104.015 17.571 104.015 17.571C104.015 17.571 102.693 17.571 102.693 17.571ZM108.863 15.857C108.863 15.857 109.744 15.857 109.744 15.857C109.744 15.857 109.744 18.857 109.744 18.857C109.744 18.857 108.863 18.857 108.863 18.857ZM111.948 15.857C111.948 15.857 112.389 15.857 112.389 15.857C112.389 15.857 112.389 16.714 112.389 16.714C112.389 16.714 111.948 16.714 111.948 16.714ZM115.915 15.857C115.915 15.857 117.237 15.857 117.237 15.857C117.237 15.857 117.237 17.571 117.237 17.571C117.237 17.571 115.915 17.571 115.915 17.571ZM1.322 16.286C1.322 16.286 2.204 16.286 2.204 16.286C2.204 16.286 2.204 18.429 2.204 18.429C2.204 18.429 1.322 18.429 1.322 18.429ZM11.019 16.286C11.019 16.286 11.900 16.286 11.900 16.286C11.900 16.286 11.900 18.429 11.900 18.429C11.900 18.429 11.019 18.429 11.019 18.429ZM21.596 16.286C21.596 16.286 22.037 16.286 22.037 16.286C22.037 16.286 22.037 18.000 22.037 18.000C22.037 18.000 21.596 18.000 21.596 18.000ZM24.241 16.286C24.241 16.286 24.681 16.286 24.681 16.286C24.681 16.286 24.681 18.429 24.681 18.429C24.681 18.429 24.241 18.429 24.241 18.429ZM34.819 16.286C34.819 16.286 35.259 16.286 35.259 16.286C35.259 16.286 35.259 18.857 35.259 18.857C35.259 18.857 34.819 18.857 34.819 18.857ZM38.344 16.286C38.344 16.286 38.785 16.286 38.785 16.286C38.785 16.286 38.785 18.000 38.785 18.000C38.785 18.000 38.344 18.000 38.344 18.000ZM48.922 16.286C48.922 16.286 49.804 16.286 49.804 16.286C49.804 16.286 49.804 18.000 49.804 18.000C49.804 18.000 48.922 18.000 48.922 18.000ZM56.415 16.286C56.415 16.286 56.856 16.286 56.856 16.286C56.856 16.286 56.856 17.571 56.856 17.571C56.856 17.571 56.415 17.571 56.415 17.571ZM65.230 16.286C65.230 16.286 65.670 16.286 65.670 16.286C65.670 16.286 65.670 18.000 65.670 18.000C65.670 18.000 65.230 18.000 65.230 18.000ZM78.893 16.286C78.893 16.286 79.333 16.286 79.333 16.286C79.333 16.286 79.333 16.714 79.333 16.714C79.333 16.714 78.893 16.714 78.893 16.714ZM109.744 16.286C109.744 16.286 110.185 16.286 110.185 16.286C110.185 16.286 110.185 18.429 110.185 18.429C110.185 18.429 109.744 18.429 109.744 18.429ZM110.626 16.286C110.626 16.286 111.948 16.286 111.948 16.286C111.948 16.286 111.948 17.143 111.948 17.143C111.948 17.143 110.626 17.143 110.626 17.143ZM0.881 16.714C0.881 16.714 1.322 16.714 1.322 16.714C1.322 16.714 1.322 18.429 1.322 18.429C1.322 18.429 0.881 18.429 0.881 18.429ZM6.170 16.714C6.170 16.714 11.019 16.714 11.019 16.714C11.019 16.714 11.019 18.000 11.019 18.000C11.019 18.000 6.170 18.000 6.170 18.000ZM14.544 16.714C14.544 16.714 14.985 16.714 14.985 16.714C14.985 16.714 14.985 17.571 14.985 17.571C14.985 17.571 14.544 17.571 14.544 17.571ZM22.037 16.714C22.037 16.714 22.478 16.714 22.478 16.714C22.478 16.714 22.478 18.429 22.478 18.429C22.478 18.429 22.037 18.429 22.037 18.429ZM23.359 16.714C23.359 16.714 24.241 16.714 24.241 16.714C24.241 16.714 24.241 18.857 24.241 18.857C24.241 18.857 23.359 18.857 23.359 18.857ZM35.259 16.714C35.259 16.714 35.700 16.714 35.700 16.714C35.700 16.714 35.700 18.857 35.700 18.857C35.700 18.857 35.259 18.857 35.259 18.857ZM37.463 16.714C37.463 16.714 38.344 16.714 38.344 16.714C38.344 16.714 38.344 18.429 38.344 18.429C38.344 18.429 37.463 18.429 37.463 18.429ZM49.804 16.714C49.804 16.714 50.685 16.714 50.685 16.714C50.685 16.714 50.685 17.143 50.685 17.143C50.685 17.143 49.804 17.143 49.804 17.143ZM62.144 16.714C62.144 16.714 63.907 16.714 63.907 16.714C63.907 16.714 63.907 17.571 63.907 17.571C63.907 17.571 62.144 17.571 62.144 17.571ZM82.419 16.714C82.419 16.714 83.741 16.714 83.741 16.714C83.741 16.714 83.741 17.143 83.741 17.143C83.741 17.143 82.419 17.143 82.419 17.143ZM92.115 16.714C92.115 16.714 92.556 16.714 92.556 16.714C92.556 16.714 92.556 18.000 92.556 18.000C92.556 18.000 92.115 18.000 92.115 18.000ZM110.185 16.714C110.185 16.714 110.626 16.714 110.626 16.714C110.626 16.714 110.626 18.000 110.626 18.000C110.626 18.000 110.185 18.000 110.185 18.000ZM117.237 16.714C117.237 16.714 117.678 16.714 117.678 16.714C117.678 16.714 117.678 17.571 117.678 17.571C117.678 17.571 117.237 17.571 117.237 17.571ZM0.000 17.143C0.000 17.143 0.881 17.143 0.881 17.143C0.881 17.143 0.881 18.000 0.881 18.000C0.881 18.000 0.000 18.000 0.000 18.000ZM17.630 17.143C17.630 17.143 18.070 17.143 18.070 17.143C18.070 17.143 18.070 24.000 18.070 24.000C18.070 24.000 17.630 24.000 17.630 24.000ZM22.478 17.143C22.478 17.143 23.359 17.143 23.359 17.143C23.359 17.143 23.359 18.429 23.359 18.429C23.359 18.429 22.478 18.429 22.478 18.429ZM35.700 17.143C35.700 17.143 37.463 17.143 37.463 17.143C37.463 17.143 37.463 18.429 37.463 18.429C37.463 18.429 35.700 18.429 35.700 18.429ZM49.804 17.143C49.804 17.143 50.244 17.143 50.244 17.143C50.244 17.143 50.244 17.571 50.244 17.571C50.244 17.571 49.804 17.571 49.804 17.571ZM82.419 17.143C82.419 17.143 83.300 17.143 83.300 17.143C83.300 17.143 83.300 17.571 83.300 17.571C83.300 17.571 82.419 17.571 82.419 17.571ZM110.626 17.143C110.626 17.143 111.507 17.143 111.507 17.143C111.507 17.143 111.507 17.571 111.507 17.571C111.507 17.571 110.626 17.571 110.626 17.571ZM62.144 17.571C62.144 17.571 63.467 17.571 63.467 17.571C63.467 17.571 63.467 18.000 63.467 18.000C63.467 18.000 62.144 18.000 62.144 18.000ZM89.470 17.571C89.470 17.571 89.911 17.571 89.911 17.571C89.911 17.571 89.911 18.000 89.911 18.000C89.911 18.000 89.470 18.000 89.470 18.000ZM102.693 17.571C102.693 17.571 103.574 17.571 103.574 17.571C103.574 17.571 103.574 18.000 103.574 18.000C103.574 18.000 102.693 18.000 102.693 18.000ZM110.626 17.571C110.626 17.571 111.067 17.571 111.067 17.571C111.067 17.571 111.067 18.000 111.067 18.000C111.067 18.000 110.626 18.000 110.626 18.000ZM115.915 17.571C115.915 17.571 116.796 17.571 116.796 17.571C116.796 17.571 116.796 18.000 116.796 18.000C116.796 18.000 115.915 18.000 115.915 18.000ZM8.815 18.000C8.815 18.000 11.019 18.000 11.019 18.000C11.019 18.000 11.019 18.429 11.019 18.429C11.019 18.429 8.815 18.429 8.815 18.429ZM24.681 18.000C24.681 18.000 25.122 18.000 25.122 18.000C25.122 18.000 25.122 18.429 25.122 18.429C25.122 18.429 24.681 18.429 24.681 18.429ZM62.144 18.000C62.144 18.000 62.585 18.000 62.585 18.000C62.585 18.000 62.585 18.429 62.585 18.429C62.585 18.429 62.144 18.429 62.144 18.429ZM115.915 18.000C115.915 18.000 116.356 18.000 116.356 18.000C116.356 18.000 116.356 18.429 116.356 18.429C116.356 18.429 115.915 18.429 115.915 18.429ZM22.919 18.429C22.919 18.429 23.359 18.429 23.359 18.429C23.359 18.429 23.359 18.857 23.359 18.857C23.359 18.857 22.919 18.857 22.919 18.857ZM35.700 18.429C35.700 18.429 37.022 18.429 37.022 18.429C37.022 18.429 37.022 18.857 37.022 18.857C37.022 18.857 35.700 18.857 35.700 18.857ZM47.600 18.429C47.600 18.429 48.041 18.429 48.041 18.429C48.041 18.429 48.041 18.857 48.041 18.857C48.041 18.857 47.600 18.857 47.600 18.857ZM80.656 18.429C80.656 18.429 81.096 18.429 81.096 18.429C81.096 18.429 81.096 18.857 81.096 18.857C81.096 18.857 80.656 18.857 80.656 18.857ZM17.189 18.857C17.189 18.857 17.630 18.857 17.630 18.857C17.630 18.857 17.630 24.000 17.630 24.000C17.630 24.000 17.189 24.000 17.189 24.000ZM16.748 21.000C16.748 21.000 17.189 21.000 17.189 21.000C17.189 21.000 17.189 24.000 17.189 24.000C17.189 24.000 16.748 24.000 16.748 24.000ZM16.307 22.286C16.307 22.286 16.748 22.286 16.748 22.286C16.748 22.286 16.748 23.571 16.748 23.571C16.748 23.571 16.307 23.571 16.307 23.571Z" fill-rule="nonzero" fill="#232323" />
</g>
</svg>
