<svg width="61" height="61" viewBox="0 0 61 61" fill="none" xmlns="http://www.w3.org/2000/svg">
<g filter="url(#filter0_dd_643_382)">
<path d="M30.3359 50.2246C42.7618 50.2246 52.8367 40.1497 52.8367 27.7238C52.8367 15.2979 42.7618 5.22461 30.3359 5.22461C17.91 5.22461 7.83673 15.2979 7.83673 27.7238C7.83673 40.1497 17.91 50.2246 30.3359 50.2246Z" fill="white"/>
<path d="M30.3358 3.91895C43.4828 3.91895 54.1423 14.5764 54.1424 27.7236C54.1424 40.8709 43.483 51.5303 30.3358 51.5303C17.1885 51.5302 6.53107 40.8707 6.53107 27.7236C6.53117 14.5765 17.1887 3.91905 30.3358 3.91895Z" stroke="white" stroke-width="2.61224"/>
</g>
<path d="M31.0934 5.24354C18.7504 4.75332 8.34771 14.3619 7.85749 26.705C7.36728 39.0499 16.9759 49.4525 29.3208 49.9409C41.6638 50.4311 52.0665 40.8225 52.5567 28.4794C53.0469 16.1364 43.4364 5.73189 31.0934 5.24354ZM40.5361 38.0098C40.3606 38.3173 40.0703 38.5426 39.7289 38.6362C39.3875 38.7299 39.0229 38.6842 38.715 38.5093C35.758 36.8267 32.508 35.7217 29.1381 35.253C25.77 34.7747 22.3416 34.9411 19.0356 35.7432C18.6982 35.8087 18.3485 35.7417 18.0592 35.5561C17.77 35.3705 17.5633 35.0806 17.4822 34.7466C17.4011 34.4126 17.4518 34.0602 17.6238 33.7626C17.7957 33.4651 18.0757 33.2452 18.4055 33.1486C22.0402 32.2651 25.7774 32.0843 29.5109 32.6081C33.2444 33.1337 36.7859 34.3378 40.0366 36.1868C40.1891 36.2737 40.323 36.3898 40.4306 36.5284C40.5383 36.6671 40.6175 36.8256 40.6639 36.9948C40.7103 37.1641 40.7229 37.3409 40.701 37.515C40.679 37.6892 40.623 37.8573 40.5361 38.0098ZM43.4756 32.1384C43.3673 32.339 43.2206 32.5164 43.0437 32.6603C42.8668 32.8041 42.6633 32.9117 42.4448 32.9768C42.2263 33.0419 41.9971 33.0633 41.7703 33.0396C41.5436 33.016 41.3237 32.9479 41.1233 32.8392C37.6604 30.9671 33.8905 29.7298 29.9918 29.1859C26.0941 28.6341 22.1291 28.7843 18.2844 29.6295C18.0616 29.6789 17.8313 29.6838 17.6066 29.644C17.3819 29.6042 17.1673 29.5204 16.9751 29.3974C16.7829 29.2745 16.6168 29.1148 16.4864 28.9275C16.3561 28.7402 16.264 28.529 16.2154 28.3061C16.166 28.0833 16.1611 27.853 16.2009 27.6283C16.2407 27.4036 16.3245 27.189 16.4475 26.9968C16.5704 26.8046 16.7301 26.6385 16.9174 26.5082C17.1047 26.3778 17.3159 26.2857 17.5388 26.2371C21.7868 25.3016 26.1682 25.1362 30.4746 25.7488C34.7831 26.3471 38.9492 27.7139 42.7747 29.7842C43.6172 30.2409 43.9304 31.294 43.4756 32.1384ZM46.7337 25.5195C46.472 26.022 46.0215 26.4001 45.4811 26.5706C44.9408 26.7412 44.3549 26.6903 43.8521 26.4291C39.8197 24.3327 35.4586 22.9408 30.9573 22.3135C26.4573 21.6753 21.8813 21.8108 17.427 22.7143C16.8749 22.8192 16.3038 22.7024 15.8373 22.3892C15.3707 22.0759 15.0465 21.5915 14.9346 21.0408C14.8228 20.4901 14.9325 19.9175 15.24 19.4472C15.5474 18.9768 16.0278 18.6465 16.577 18.5279C21.5068 17.5272 26.5712 17.3759 31.5519 18.0805C36.5341 18.7759 41.3609 20.3172 45.8241 22.6378C46.8698 23.1821 47.278 24.472 46.7337 25.5195Z" fill="#1ED760"/>
<defs>
<filter id="filter0_dd_643_382" x="8.10623e-06" y="6.50883e-05" width="60.6734" height="60.6736" filterUnits="userSpaceOnUse" color-interpolation-filters="sRGB">
<feFlood flood-opacity="0" result="BackgroundImageFix"/>
<feColorMatrix in="SourceAlpha" type="matrix" values="0 0 0 0 0 0 0 0 0 0 0 0 0 0 0 0 0 0 127 0" result="hardAlpha"/>
<feOffset dy="1.30612"/>
<feGaussianBlur stdDeviation="0.65306"/>
<feComposite in2="hardAlpha" operator="out"/>
<feColorMatrix type="matrix" values="0 0 0 0 0 0 0 0 0 0 0 0 0 0 0 0 0 0 0.1 0"/>
<feBlend mode="normal" in2="BackgroundImageFix" result="effect1_dropShadow_643_382"/>
<feColorMatrix in="SourceAlpha" type="matrix" values="0 0 0 0 0 0 0 0 0 0 0 0 0 0 0 0 0 0 127 0" result="hardAlpha"/>
<feOffset dy="2.61224"/>
<feGaussianBlur stdDeviation="2.61224"/>
<feComposite in2="hardAlpha" operator="out"/>
<feColorMatrix type="matrix" values="0 0 0 0 0 0 0 0 0 0 0 0 0 0 0 0 0 0 0.2 0"/>
<feBlend mode="normal" in2="effect1_dropShadow_643_382" result="effect2_dropShadow_643_382"/>
<feBlend mode="normal" in="SourceGraphic" in2="effect2_dropShadow_643_382" result="shape"/>
</filter>
</defs>
</svg>
